<?xml version="1.0" encoding="UTF-8"?>
<!DOCTYPE svg PUBLIC "-//W3C//DTD SVG 1.1//EN" "http://www.w3.org/Graphics/SVG/1.1/DTD/svg11.dtd">
<!-- Creator: CorelDRAW 2021 (64 Bit) -->
<svg xmlns="http://www.w3.org/2000/svg" xml:space="preserve" width="41.291mm" height="66.0315mm" version="1.1" style="shape-rendering:geometricPrecision; text-rendering:geometricPrecision; image-rendering:optimizeQuality; fill-rule:evenodd; clip-rule:evenodd"
viewBox="0 0 1392.88 2227.46"
 xmlns:xlink="http://www.w3.org/1999/xlink"
 xmlns:xodm="http://www.corel.com/coreldraw/odm/2003">
 <defs>
  <style type="text/css">
   <![CDATA[
    .fil5 {fill:none}
    .fil2 {fill:#0C1B20}
    .fil7 {fill:#C9E7F5}
    .fil8 {fill:#E9F5FB}
    .fil0 {fill:#F8FCFE}
    .fil4 {fill:#4E3822;fill-opacity:0.149020}
    .fil9 {fill:#C9E7F5;fill-opacity:0.501961}
    .fil1 {fill:url(#id2)}
    .fil6 {fill:url(#id3)}
    .fil3 {fill:url(#id4)}
   ]]>
  </style>
     <clipPath id="id0">
      <path d="M873.49 1222.52c0,-226.63 112.96,-426.88 285.65,-547.52 85.39,104.58 130.24,231.04 130.24,365.82 0,228.24 -132.1,425.61 -324,519.85 -58.39,-99.17 -91.89,-214.75 -91.89,-338.16z"/>
     </clipPath>
     <clipPath id="id1">
      <path d="M539.3 1222.52c0,-226.63 -112.96,-426.88 -285.65,-547.52 -85.39,104.58 -130.24,231.04 -130.24,365.82 0,228.24 132.1,425.61 324,519.85 58.39,-99.17 91.89,-214.75 91.89,-338.16z"/>
     </clipPath>
  <linearGradient id="id2" gradientUnits="userSpaceOnUse" x1="706.77" y1="340.81" x2="712.09" y2="1019.3">
   <stop offset="0" style="stop-opacity:1; stop-color:#5D4229"/>
   <stop offset="0.411765" style="stop-opacity:1; stop-color:#6B4A2C"/>
   <stop offset="1" style="stop-opacity:1; stop-color:#7A5230"/>
  </linearGradient>
  <linearGradient id="id3" gradientUnits="userSpaceOnUse" x1="-86.97" y1="1124.81" x2="539.3" y2="1117.85">
   <stop offset="0" style="stop-opacity:1; stop-color:#5D4229"/>
   <stop offset="1" style="stop-opacity:1; stop-color:#7A5230"/>
  </linearGradient>
  <linearGradient id="id4" gradientUnits="userSpaceOnUse" xlink:href="#id3" x1="1406.36" y1="1116.24" x2="873.48" y2="1117.85">
  </linearGradient>
 </defs>
 <g id="Camada_x0020_1">
  <metadata id="CorelCorpID_0Corel-Layer"/>
  <g id="_2784863577296">
   <path class="fil0" d="M989.05 827.68c-190.13,156.45 -428.92,135.55 -587.91,-6.71 62.77,100.62 105.12,218.24 120.38,345.42l6.58 0 1.16 0 332.99 0 2.21 0 25.44 0c17.04,-141.98 67.84,-272.06 143.13,-379.86 -14.05,14.86 -28.76,28.63 -43.98,41.16z"/>
   <circle class="fil0" cx="706.39" cy="487.88" r="407.53"/>
   <path class="fil1" d="M915.49 252.3c104.75,0 224.91,90.11 237.74,208.61 11.04,92.1 -17.83,188.88 -70.13,268.96 -30.15,46.16 -68.26,86.61 -110.56,117.85 -295.2,218.03 -715.31,27.49 -715.31,-358.33 0,-129.02 105.61,-237.08 238.48,-237.08 91.11,0 170.2,51.4 209.89,126.77 39.69,-75.37 105.14,-126.77 209.89,-126.77zm-238.36 389.69c3.6,24.92 13.69,48.71 29.27,70.75 15.24,-21.57 25.24,-44.81 29.03,-69.16 43.48,50.73 108.01,82.89 180.06,82.89 33.48,0 65.33,-6.95 94.2,-19.47 -5.66,16.32 -49.54,57.88 -65.46,72.19 -126.82,113.99 -350.44,113.99 -477.26,0 -15.92,-14.31 -59.8,-55.88 -65.46,-72.19 28.88,12.52 60.72,19.47 94.2,19.47 72.81,0 137.94,-32.83 181.42,-84.47zm-184.37 -315.4c90.46,0 163.79,73.33 163.79,163.79 0,90.46 -73.33,163.79 -163.79,163.79 -90.46,0 -163.79,-73.33 -163.79,-163.79 0,-90.46 73.33,-163.79 163.79,-163.79zm425.48 0c90.46,0 163.79,73.33 163.79,163.79 0,90.46 -73.33,163.79 -163.79,163.79 -90.46,0 -163.79,-73.33 -163.79,-163.79 0,-90.46 73.33,-163.79 163.79,-163.79z"/>
   <path class="fil2" d="M918.72 396.61c51.78,0 93.77,41.98 93.77,93.77 0,51.79 -41.98,93.77 -93.77,93.77 -51.79,0 -93.78,-41.98 -93.78,-93.77 0,-10.62 1.77,-20.83 5.03,-30.36 3.74,0.96 7.65,1.47 11.69,1.47 25.98,0 47.04,-21.06 47.04,-47.04 0,-4.27 -0.58,-8.42 -1.64,-12.35 9.89,-3.55 20.54,-5.48 31.66,-5.48z"/>
   <path class="fil2" d="M493.24 396.61c51.78,0 93.77,41.98 93.77,93.77 0,51.79 -41.98,93.77 -93.77,93.77 -51.79,0 -93.78,-41.98 -93.78,-93.77 0,-10.62 1.77,-20.83 5.03,-30.36 3.74,0.96 7.65,1.47 11.69,1.47 25.98,0 47.04,-21.06 47.04,-47.04 0,-4.27 -0.58,-8.42 -1.64,-12.35 9.89,-3.55 20.54,-5.48 31.66,-5.48z"/>
   <path class="fil2" d="M1122.61 313.62l0 -45.31 0 -154.03 0 -33.85 0 -0.07 72.99 0 0 134.02c-23.01,13.08 -35.52,41.48 -20.25,70.89 2.35,4.53 4.33,5.66 6.41,9.78 -8.24,21.92 -12.96,23.96 -18.83,57.14 -4.4,24.86 -5.53,46.01 -5.75,71.22 -0.27,31.45 14.45,32.83 43.47,32.92 21.33,0.07 57.49,4.44 68.61,-9.58 14.97,-18.87 -2.72,-110.07 -11.24,-133.16 -6.61,-17.93 -11.5,-14.33 -4.73,-24.15 21.02,-30.52 4.55,-63.59 -16.65,-74.81l0 -134.27c21.39,0 42.72,-0.12 63.98,-0.12 5,0 9.09,-4.09 9.09,-9.09l0 -62.05c0,-5 -4.09,-9.08 -9.09,-9.08 -396.24,0 -792.19,0 -1188.43,0 -5,0 -9.08,4.09 -9.08,9.08l0 62.05c0,5 4.08,9.09 9.08,9.09 59.36,0 118.73,0 178.09,0l0 0.07 0 33.85 0 154.16 0 45.18 0 17.12 0 0.94 0.05 0.02c0.41,4.21 3.45,7.65 7.45,8.66l-0 0.14 408.64 82.73 407.41 -82.46c4.94,-0.56 8.78,-4.76 8.78,-9.86l0 -0.07 0 0 0 -17.09z"/>
   <g>
    <path class="fil3" d="M873.49 1222.52c0,-226.63 112.96,-426.88 285.65,-547.52 85.39,104.58 130.24,231.04 130.24,365.82 0,228.24 -132.1,425.61 -324,519.85 -58.39,-99.17 -91.89,-214.75 -91.89,-338.16z"/>
    <g style="clip-path:url(#id0)">
     <g>
      <path id="_1" class="fil4" d="M1117.55 950.71c0,-342.65 170.79,-645.41 431.88,-827.8 129.1,158.11 196.91,349.31 196.91,553.09 0,345.07 -199.71,643.49 -489.86,785.97 -88.28,-149.93 -138.93,-324.68 -138.93,-511.27z"/>
     </g>
    </g>
    <path class="fil5" d="M873.49 1222.52c0,-226.63 112.96,-426.88 285.65,-547.52 85.39,104.58 130.24,231.04 130.24,365.82 0,228.24 -132.1,425.61 -324,519.85 -58.39,-99.17 -91.89,-214.75 -91.89,-338.16z"/>
    <path class="fil6" d="M539.3 1222.52c0,-226.63 -112.96,-426.88 -285.65,-547.52 -85.39,104.58 -130.24,231.04 -130.24,365.82 0,228.24 132.1,425.61 324,519.85 58.39,-99.17 91.89,-214.75 91.89,-338.16z"/>
    <g style="clip-path:url(#id1)">
     <g>
      <path id="_1_0" class="fil4" d="M295.24 950.71c0,-342.65 -170.79,-645.41 -431.88,-827.8 -129.1,158.11 -196.91,349.31 -196.91,553.09 0,345.07 199.72,643.49 489.86,785.97 88.28,-149.93 138.93,-324.68 138.93,-511.27z"/>
     </g>
    </g>
    <path class="fil5" d="M539.3 1222.52c0,-226.63 -112.96,-426.88 -285.65,-547.52 -85.39,104.58 -130.24,231.04 -130.24,365.82 0,228.24 132.1,425.61 324,519.85 58.39,-99.17 91.89,-214.75 91.89,-338.16z"/>
   </g>
   <g>
    <path class="fil7" d="M1026.05 1144.09l-159.38 0 -2.23 0 -334.74 0 -1.16 0 -164.71 0c-12.21,0 -22.73,4.18 -30.72,12.22l-144.62 145.44 -178.49 179.49c-13.12,13.2 -13.36,32.35 -0.56,45.79l654.67 687.62c7.98,8.39 18.75,12.8 31.25,12.81 12.51,0.01 23.28,-4.39 31.27,-12.76l656.77 -687.78c12.87,-13.48 12.6,-32.75 -0.65,-45.95l-177.57 -176.84 -148.53 -147.93c-7.99,-7.96 -18.45,-12.09 -30.59,-12.09z"/>
    <polygon class="fil0" points="363.84,1180.37 1026.05,1180.37 1352.16,1505.14 695.39,2192.93 40.72,1505.3 "/>
    <polygon class="fil8" points="364.1,1178.62 1026.05,1180.37 1352.16,1505.14 40.72,1505.3 "/>
    <polygon class="fil9" points="364.09,1505.27 696.71,1180.37 1026.06,1505.19 695.39,2192.93 "/>
   </g>
  </g>
 </g>
</svg>
