<svg width="157" height="250" viewBox="0 0 157 250" fill="none" xmlns="http://www.w3.org/2000/svg">
<g clip-path="url(#clip0_164_2)">
<path fill-rule="evenodd" clip-rule="evenodd" d="M110.815 92.7345C89.5122 110.263 62.7579 107.922 44.9444 91.9827C51.9772 103.256 56.7222 116.435 58.4319 130.684H59.1692H59.2991H96.6078H96.8554H99.7058C101.615 114.776 107.307 100.202 115.742 88.124C114.168 89.789 112.52 91.3318 110.815 92.7356V92.7345Z" fill="#F8FCFE"/>
<path d="M79.1451 100.323C104.363 100.323 124.805 79.8803 124.805 54.6628C124.805 29.4454 104.363 9.00256 79.1451 9.00256C53.9276 9.00256 33.4848 29.4454 33.4848 54.6628C33.4848 79.8803 53.9276 100.323 79.1451 100.323Z" fill="#F8FCFE"/>
<path fill-rule="evenodd" clip-rule="evenodd" d="M102.573 28.2681C114.309 28.2681 127.772 38.3641 129.21 51.641C130.447 61.9601 127.212 72.8034 121.352 81.7757C117.974 86.9475 113.704 91.4796 108.965 94.9798C75.8902 119.408 28.8205 98.0598 28.8205 54.832C28.8205 40.3764 40.6532 28.2692 55.5401 28.2692C65.7482 28.2692 74.6096 34.0281 79.0565 42.4727C83.5034 34.0281 90.8366 28.2692 102.573 28.2692V28.2681ZM75.8667 71.9295C76.2701 74.7216 77.4006 77.387 79.1462 79.8564C80.8537 77.4397 81.9741 74.8359 82.3987 72.1077C87.2703 77.7915 94.5003 81.3948 102.573 81.3948C106.324 81.3948 109.893 80.6161 113.127 79.2133C112.493 81.0418 107.577 85.6983 105.793 87.3016C91.5839 100.073 66.5292 100.073 52.3201 87.3016C50.5364 85.6983 45.62 81.0407 44.9858 79.2133C48.2216 80.6161 51.789 81.3948 55.5401 81.3948C63.6979 81.3948 70.9951 77.7164 75.8667 71.9306V71.9295ZM55.2096 36.5916C65.3449 36.5916 73.5609 44.8076 73.5609 54.9429C73.5609 65.0782 65.3449 73.2942 55.2096 73.2942C45.0744 73.2942 36.8583 65.0782 36.8583 54.9429C36.8583 44.8076 45.0744 36.5916 55.2096 36.5916ZM102.881 36.5916C113.016 36.5916 121.232 44.8076 121.232 54.9429C121.232 65.0782 113.016 73.2942 102.881 73.2942C92.7458 73.2942 84.5298 65.0782 84.5298 54.9429C84.5298 44.8076 92.7458 36.5916 102.881 36.5916Z" fill="url(#paint0_linear_164_2)"/>
<path fill-rule="evenodd" clip-rule="evenodd" d="M102.935 44.4368C108.736 44.4368 113.441 49.1403 113.441 54.9429C113.441 60.7455 108.737 65.449 102.935 65.449C97.1322 65.449 92.4276 60.7455 92.4276 54.9429C92.4276 53.753 92.6259 52.6091 92.9911 51.5413C93.4102 51.6489 93.8482 51.706 94.3009 51.706C97.2117 51.706 99.5713 49.3464 99.5713 46.4356C99.5713 45.9572 99.5063 45.4922 99.3876 45.0519C100.496 44.6541 101.689 44.4379 102.935 44.4379V44.4368Z" fill="#0C1B20"/>
<path fill-rule="evenodd" clip-rule="evenodd" d="M55.2634 44.4368C61.0649 44.4368 65.7695 49.1403 65.7695 54.9429C65.7695 60.7455 61.066 65.449 55.2634 65.449C49.4608 65.449 44.7562 60.7455 44.7562 54.9429C44.7562 53.753 44.9545 52.6091 45.3197 51.5413C45.7388 51.6489 46.1769 51.706 46.6295 51.706C49.5403 51.706 51.8999 49.3464 51.8999 46.4356C51.8999 45.9572 51.8349 45.4922 51.7162 45.0519C52.8243 44.6541 54.0175 44.4379 55.2634 44.4379V44.4368Z" fill="#0C1B20"/>
<path fill-rule="evenodd" clip-rule="evenodd" d="M125.779 35.1385V30.0619V12.8041V9.01151V9.00367H133.957V24.0195C131.379 25.485 129.977 28.6669 131.688 31.9621C131.951 32.4696 132.173 32.5962 132.406 33.0579C131.483 35.5138 130.954 35.7424 130.296 39.4599C129.803 42.2453 129.677 44.6149 129.652 47.4395C129.622 50.9632 131.271 51.1178 134.523 51.1279C136.913 51.1357 140.964 51.6254 142.21 50.0545C143.887 47.9403 141.905 37.7221 140.95 35.1351C140.21 33.1262 139.662 33.5295 140.421 32.4293C142.776 29.0098 140.93 25.3046 138.555 24.0475V9.00367C140.952 9.00367 143.341 8.99022 145.723 8.99022C146.284 8.99022 146.742 8.53198 146.742 7.97177V1.01959C146.742 0.459387 146.284 0.0022583 145.723 0.0022583C101.328 0.0022583 56.9653 0.0022583 12.57 0.0022583C12.0098 0.0022583 11.5527 0.460508 11.5527 1.01959V7.97177C11.5527 8.53198 12.0098 8.99022 12.57 8.99022C19.2208 8.99022 25.8727 8.99022 32.5235 8.99022V8.99807V12.7907V30.063V35.125V37.0432V37.1485L32.5291 37.1507C32.575 37.6224 32.9156 38.0078 33.3638 38.121V38.1367L79.1484 47.4059L124.795 38.1669C125.349 38.1042 125.779 37.6336 125.779 37.0622V37.0544V35.1396V35.1385Z" fill="#2F2F2F"/>
<mask id="mask0_164_2" style="mask-type:luminance" maskUnits="userSpaceOnUse" x="97" y="75" width="48" height="100">
<path d="M97.8671 136.973C97.8671 111.581 110.523 89.1447 129.872 75.628C139.439 87.3453 144.464 101.514 144.464 116.615C144.464 142.187 129.663 164.301 108.163 174.86C101.621 163.749 97.8671 150.799 97.8671 136.972V136.973Z" fill="white"/>
</mask>
<g mask="url(#mask0_164_2)">
<path fill-rule="evenodd" clip-rule="evenodd" d="M94 115.748C94 77.3569 113.136 43.4352 142.388 23C156.853 40.7149 164.451 62.1372 164.451 84.969C164.451 123.631 142.075 157.067 109.566 173.03C99.6749 156.232 94 136.653 94 115.747V115.748Z" fill="#4E3822"/>
</g>
<path fill-rule="evenodd" clip-rule="evenodd" d="M60.424 136.973C60.424 111.581 47.7678 89.1447 28.4194 75.628C18.8521 87.3453 13.8271 101.514 13.8271 116.615C13.8271 142.187 28.6278 164.301 50.1285 174.86C56.6706 163.749 60.424 150.799 60.424 136.972V136.973Z" fill="url(#paint1_linear_164_2)"/>
<mask id="mask1_164_2" style="mask-type:luminance" maskUnits="userSpaceOnUse" x="13" y="75" width="48" height="100">
<path d="M60.424 136.973C60.424 111.581 47.7678 89.1447 28.4194 75.628C18.8521 87.3453 13.8271 101.514 13.8271 116.615C13.8271 142.187 28.6278 164.301 50.1285 174.86C56.6706 163.749 60.424 150.799 60.424 136.972V136.973Z" fill="white"/>
</mask>
<g mask="url(#mask1_164_2)">
<path fill-rule="evenodd" clip-rule="evenodd" d="M33.0791 106.519C33.0791 68.1279 13.9436 34.2062 -15.3093 13.771C-29.7739 31.4859 -37.3714 52.9082 -37.3714 75.74C-37.3714 114.402 -14.9945 147.838 17.5132 163.801C27.4042 147.003 33.0791 127.424 33.0791 106.518V106.519Z" fill="#4E3822" fill-opacity="0.14902"/>
</g>
<path fill-rule="evenodd" clip-rule="evenodd" d="M114.96 128.186H97.103H96.8532H59.3484H59.2185H40.7641C39.3961 128.186 38.2174 128.654 37.3222 129.555L21.1188 145.85L1.12049 165.96C-0.349493 167.439 -0.376383 169.585 1.05775 171.091L74.4079 248.133C75.302 249.073 76.5087 249.567 77.9092 249.568C79.3109 249.569 80.5176 249.076 81.4128 248.138L154.998 171.078C156.44 169.568 156.41 167.409 154.925 165.93L135.03 146.117L118.389 129.542C117.493 128.651 116.322 128.188 114.961 128.188L114.96 128.186Z" fill="#C9E7F5"/>
<path fill-rule="evenodd" clip-rule="evenodd" d="M40.7652 132.25H114.96L151.498 168.638L77.9126 245.699L4.56238 168.656L40.7652 132.25Z" fill="#F8FCFE"/>
<path fill-rule="evenodd" clip-rule="evenodd" d="M40.7943 132.054L114.96 132.25L151.498 168.638L4.56238 168.656L40.7943 132.054Z" fill="#E9F5FB"/>
<path fill-rule="evenodd" clip-rule="evenodd" d="M40.7933 168.653L78.0605 132.25L114.961 168.644L77.9126 245.699L40.7933 168.653Z" fill="#C9E7F5" fill-opacity="0.501961"/>
</g>
<defs>
<linearGradient id="paint0_linear_164_2" x1="79.1876" y1="38.1849" x2="79.7837" y2="114.204" gradientUnits="userSpaceOnUse">
<stop stop-color="#5D4229"/>
<stop offset="0.411765" stop-color="#6B4A2C"/>
<stop offset="1" stop-color="#7A5230"/>
</linearGradient>
<linearGradient id="paint1_linear_164_2" x1="-9.74419" y1="126.025" x2="60.424" y2="125.246" gradientUnits="userSpaceOnUse">
<stop stop-color="#5D4229"/>
<stop offset="1" stop-color="#7A5230"/>
</linearGradient>
<clipPath id="clip0_164_2">
<rect width="156.06" height="249.568" fill="white"/>
</clipPath>
</defs>
</svg>
