<svg width="332" height="421" viewBox="0 0 332 421" fill="none" xmlns="http://www.w3.org/2000/svg">
<mask id="mask0_160_4" style="mask-type:luminance" maskUnits="userSpaceOnUse" x="0" y="0" width="332" height="421">
<path d="M29.7648 176.882C11.1696 217.359 -5.9728 271.01 26.4025 309.423C42.1247 328.077 65.7485 339.155 87.5475 349.038C107.783 358.213 134.956 369.305 148.84 387.272C158.069 399.215 162.028 405.487 166.24 420.165C170.452 405.487 174.411 399.215 183.639 387.272C197.523 369.305 224.696 358.213 244.932 349.038C266.731 339.155 290.355 328.077 306.077 309.423C338.453 271.01 321.31 217.359 302.715 176.882C291.293 152.018 299.392 131.119 322.654 117.807L331.629 112.671L277.323 40.0298L273.199 39.7013C266.416 39.1616 257.585 35.2612 251.449 32.4216C241.351 27.7486 231.511 22.4285 221.544 17.4728C205.365 9.42854 184.522 -0.286817 166.146 0.0847825C147.4 0.113049 129.368 8.08559 113.01 16.5371C103.192 21.6103 93.5588 27.1624 83.5804 31.9027C76.2292 35.3949 67.4652 39.0501 59.2807 39.7013L55.1565 40.0298L0.85025 112.671L9.82518 117.807C33.0867 131.119 41.1869 152.018 29.7648 176.882Z" fill="white"/>
</mask>
<g mask="url(#mask0_160_4)">
<path fill-rule="evenodd" clip-rule="evenodd" d="M29.7648 176.882C11.1696 217.359 -5.9728 271.01 26.4025 309.423C42.1247 328.077 65.7485 339.155 87.5475 349.038C107.783 358.213 134.956 369.305 148.84 387.272C158.069 399.215 162.028 405.487 166.24 420.165C170.452 405.487 174.411 399.215 183.639 387.272C197.523 369.305 224.696 358.213 244.932 349.038C266.731 339.155 290.355 328.077 306.077 309.423C338.453 271.01 321.31 217.359 302.715 176.882C291.293 152.018 299.392 131.119 322.654 117.807L331.629 112.671L277.323 40.0298L273.199 39.7013C266.416 39.1616 257.585 35.2612 251.449 32.4216C241.351 27.7486 231.511 22.4285 221.544 17.4728C205.365 9.42854 184.522 -0.286817 166.146 0.0847825C147.4 0.113049 129.368 8.08559 113.01 16.5371C103.192 21.6103 93.5588 27.1624 83.5804 31.9027C76.2292 35.3949 67.4652 39.0501 59.2807 39.7013L55.1565 40.0298L0.85025 112.671L9.82518 117.807C33.0867 131.119 41.1869 152.018 29.7648 176.882Z" fill="url(#paint0_linear_160_4)"/>
</g>
<mask id="mask1_160_4" style="mask-type:luminance" maskUnits="userSpaceOnUse" x="16" y="11" width="301" height="381">
<path d="M166.266 391.588C190.217 308.118 373.936 357.324 292.95 181.034C279.078 150.838 290.675 125.718 316.389 111.002L271.27 50.648C245.887 48.6282 198.836 10.7822 166.247 11.5088C129.075 11.5088 91.9338 48.203 61.2097 50.648L16.0897 111.002C41.8037 125.718 53.4016 150.838 39.53 181.034C-41.4569 357.324 142.314 308.118 166.266 391.588Z" fill="white"/>
</mask>
<g mask="url(#mask1_160_4)">
<path fill-rule="evenodd" clip-rule="evenodd" d="M166.266 391.588C190.217 308.118 373.936 357.324 292.95 181.034C279.078 150.838 290.675 125.718 316.389 111.002L271.27 50.648C245.887 48.6282 198.836 10.7822 166.247 11.5088C129.075 11.5088 91.9338 48.203 61.2097 50.648L16.0897 111.002C41.8037 125.718 53.4016 150.838 39.53 181.034C-41.4569 357.324 142.314 308.118 166.266 391.588Z" fill="url(#paint1_linear_160_4)"/>
</g>
<path d="M57.739 145.097L70.9741 148.622L69.9941 152.301L62.6913 150.356L69.3293 154.799L68.5096 157.877L60.4802 158.433L67.8395 160.393L66.8594 164.073L53.6238 160.548L54.8092 156.098L64.2924 155.065L56.5591 149.528L57.739 145.097ZM72.5033 137.507L70.8752 142.083L72.7328 143.527L71.3915 147.298L60.1605 138.003L61.6323 133.866L76.2034 133.771L74.8557 137.56L72.5033 137.507ZM69.4385 137.427L64.7704 137.333L68.4555 140.191L69.4385 137.427ZM79.9079 126.487L74.1728 126.64L73.9894 127.004L78.4992 129.279L76.7837 132.679L64.555 126.51L67.2589 121.149C67.7552 120.167 68.3458 119.42 69.031 118.91C69.7166 118.4 70.4446 118.122 71.2149 118.075C71.9856 118.029 72.7406 118.192 73.4812 118.566C74.3137 118.985 74.9295 119.583 75.3293 120.358C75.7292 121.132 75.8403 122.027 75.6627 123.04L81.8244 122.688L79.9079 126.487ZM71.6647 125.831L72.5136 124.149C72.7468 123.687 72.8121 123.284 72.7093 122.942C72.6061 122.6 72.3469 122.323 71.9304 122.114C71.5369 121.915 71.1677 121.878 70.8229 122.001C70.4776 122.124 70.191 122.411 69.9638 122.862L69.1151 124.545L71.6647 125.831ZM72.5805 111.226L84.5325 117.916L82.6725 121.239L70.7205 114.549L72.5805 111.226ZM88.6647 107.625L85.9282 111.639L87.3588 113.507L85.1042 116.814L76.6 104.973L79.0729 101.345L93.1917 104.951L90.9262 108.274L88.6647 107.625ZM85.7204 106.771L81.2288 105.495L84.068 109.195L85.7204 106.771ZM90.9528 96.8977C89.9557 95.9917 89.2561 94.9754 88.8536 93.8488C88.451 92.7217 88.3804 91.5765 88.6408 90.4136C88.9016 89.2502 89.4852 88.1704 90.3904 87.1737C91.5405 85.908 92.8452 85.1509 94.3044 84.9022C95.7645 84.6536 97.1874 84.9313 98.5737 85.736L95.8173 88.7702C95.2685 88.6038 94.7475 88.59 94.2541 88.7278C93.7613 88.8665 93.3229 89.1462 92.9396 89.5681C92.3471 90.22 92.1074 90.951 92.2196 91.7617C92.3318 92.5723 92.776 93.3305 93.5526 94.0362C94.3388 94.7501 95.1405 95.1244 95.958 95.1584C96.7759 95.1932 97.4808 94.8844 98.0733 94.2324C98.4566 93.8105 98.6932 93.3472 98.784 92.8434C98.8743 92.3392 98.8104 91.8221 98.592 91.2918L101.349 88.2577C102.283 89.5609 102.695 90.9506 102.587 92.4276C102.479 93.9046 101.85 95.2756 100.7 96.5409C99.7945 97.5376 98.7752 98.2217 97.6425 98.5921C96.5094 98.9625 95.363 99.0017 94.2028 98.7088C93.0428 98.416 91.9592 97.8124 90.9528 96.8977ZM102.567 79.756L103.978 81.4885L107.367 78.7279L109.195 80.9722L105.806 83.7332L107.364 85.646L111.205 82.5173L113.131 84.8825L106.337 90.4162L97.6878 79.7961L104.482 74.2625L106.408 76.6277L102.567 79.756ZM101.15 73.4937L98.5854 78.0374L96.9538 76.034L99.3334 71.2645L101.15 73.4937ZM116.129 79.1902L119.695 76.8695L121.285 79.3122L114.527 83.7098L107.056 72.2294L110.248 70.1526L116.129 79.1902ZM119.023 64.7422L125.846 76.619L122.543 78.5159L115.721 66.6392L119.023 64.7422ZM134.884 69.8498L130.422 71.768L130.626 74.1123L126.95 75.6934L126.127 61.1381L130.161 59.4036L140.14 70.0226L136.445 71.6108L134.884 69.8498ZM132.859 67.5489L129.753 64.0626L130.163 68.7077L132.859 67.5489ZM153.42 57.4149C153.604 58.2233 153.584 59.0014 153.362 59.7494C153.14 60.497 152.698 61.1546 152.037 61.7232C151.376 62.292 150.502 62.699 149.416 62.9454L147.578 63.3623L148.601 67.8717L144.887 68.7141L141.857 55.3569L147.408 54.0972C148.481 53.8538 149.438 53.8364 150.275 54.0446C151.112 54.2533 151.797 54.6493 152.327 55.2325C152.858 55.8161 153.223 56.5433 153.42 57.4149ZM148.385 60.0714C149.433 59.8333 149.848 59.2346 149.631 58.2746C149.41 57.3022 148.776 56.9349 147.727 57.1722L146.249 57.5078L146.907 60.4064L148.385 60.0714ZM159.545 52.5196L160.861 66.1532L157.071 66.519L155.754 52.8858L159.545 52.5196ZM175.739 66.0949L171.933 65.9725L167.111 58.1586L166.865 65.8096L163.059 65.6874L163.499 51.9973L167.305 52.1197L172.124 60.0306L172.373 52.2826L176.18 52.405L175.739 66.0949ZM192.881 55.6366L189.851 68.9938L186.137 68.1513L187.354 62.7893L182.825 61.7621L181.609 67.1241L177.895 66.2813L180.926 52.9244L184.64 53.7669L183.501 58.7876L188.028 59.8145L189.168 54.7941L192.881 55.6366ZM199.1 60.9906L198.341 63.0925L202.453 64.576L201.471 67.2984L197.359 65.8149L196.521 68.1358L201.182 69.8173L200.146 72.6864L191.904 69.7126L196.553 56.8286L204.795 59.8028L203.76 62.6718L199.1 60.9906ZM211.263 63.1763L205.128 75.4224L201.723 73.7168L207.858 61.4702L211.263 63.1763ZM213.071 79.9366L213.547 74.2194L213.205 73.9967L210.45 78.231L207.258 76.1537L214.728 64.6734L219.76 67.948C220.683 68.5482 221.36 69.2172 221.792 69.9542C222.225 70.6912 222.422 71.4452 222.384 72.2162C222.345 72.9873 222.1 73.7201 221.648 74.4152C221.139 75.1968 220.478 75.7437 219.664 76.0562C218.85 76.3692 217.95 76.3817 216.962 76.0944L216.638 82.2577L213.071 79.9366ZM214.625 71.8149L216.204 72.8425C216.638 73.1252 217.031 73.2337 217.382 73.169C217.734 73.1041 218.037 72.8765 218.291 72.4857C218.531 72.1165 218.609 71.7533 218.524 71.3968C218.439 71.0404 218.185 70.7245 217.762 70.4489L216.183 69.4213L214.625 71.8149ZM223.094 87.3C222.1 86.49 221.376 85.5122 220.923 84.3666C220.47 83.2203 220.337 82.0346 220.525 80.8093C220.713 79.5843 221.232 78.4494 222.083 77.4051C222.933 76.3609 223.94 75.6228 225.101 75.1908C226.263 74.759 227.449 74.6517 228.659 74.8688C229.868 75.0857 230.971 75.5989 231.965 76.4089C232.969 77.2268 233.697 78.2041 234.15 79.3406C234.602 80.4775 234.732 81.6564 234.539 82.8776C234.346 84.0986 233.824 85.2318 232.974 86.2761C232.123 87.3203 231.12 88.0603 229.963 88.4962C228.806 88.9323 227.62 89.0442 226.406 88.8322C225.192 88.6205 224.088 88.1096 223.094 87.3ZM225.327 84.5586C226.08 85.1717 226.876 85.4105 227.713 85.2741C228.551 85.1373 229.305 84.6581 229.976 83.8345C230.663 82.9909 230.987 82.1473 230.946 81.3045C230.906 80.4617 230.51 79.7333 229.757 79.12C228.993 78.4985 228.198 78.2552 227.369 78.3905C226.54 78.5261 225.783 79.0156 225.095 79.8592C224.417 80.6926 224.095 81.5286 224.13 82.3677C224.164 83.2064 224.564 83.9365 225.327 84.5586ZM248.697 93.4561L246.454 95.4947L242.77 91.4397L240.987 93.0596L243.704 96.0506L241.562 97.9976L238.844 95.0063L234.876 98.6121L232.315 95.7941L242.452 86.583L248.697 93.4561ZM246.325 109.754L243.589 105.741L241.327 106.389L239.073 103.083L253.202 99.4923L255.676 103.121L247.16 114.945L244.895 111.622L246.325 109.754ZM248.197 107.326L251.025 103.611L246.544 104.902L248.197 107.326ZM252.371 117.848L254.449 121.561L251.905 122.984L247.968 115.949L259.92 109.259L261.78 112.582L252.371 117.848ZM258.835 120.89C260.062 120.334 261.273 120.096 262.467 120.174C263.661 120.252 264.74 120.642 265.704 121.343C266.668 122.044 267.428 123.008 267.983 124.235C268.688 125.793 268.865 127.291 268.514 128.73C268.163 130.168 267.343 131.364 266.054 132.317L264.363 128.582C264.734 128.144 264.953 127.671 265.023 127.164C265.091 126.657 265.008 126.143 264.773 125.624C264.41 124.822 263.834 124.311 263.046 124.092C262.258 123.873 261.385 123.98 260.429 124.413C259.462 124.851 258.8 125.438 258.444 126.175C258.088 126.912 258.091 127.681 258.455 128.484C258.69 129.003 259.021 129.404 259.447 129.687C259.874 129.97 260.374 130.117 260.948 130.128L262.638 133.863C261.071 134.202 259.632 134.029 258.319 133.343C257.006 132.658 255.998 131.536 255.293 129.978C254.737 128.751 254.515 127.544 254.624 126.357C254.734 125.17 255.154 124.103 255.883 123.154C256.612 122.206 257.596 121.451 258.835 120.89ZM263.671 145.004L262.043 140.428L259.691 140.482L258.349 136.712L272.927 136.823L274.399 140.96L263.162 150.238L261.814 146.449L263.671 145.004ZM266.098 143.13L269.776 140.254L265.114 140.366L266.098 143.13ZM273.067 134.609C275.177 134.243 276.497 134.804 277.027 136.292C277.127 136.573 277.175 136.842 277.169 137.098C277.164 137.354 277.135 137.656 277.08 138.006C277.044 138.252 277.022 138.46 277.013 138.628C277.003 138.796 277.026 138.953 277.078 139.1C277.238 139.551 277.614 139.72 278.206 139.606L278.851 141.417C277.753 141.616 276.885 141.564 276.248 141.261C275.612 140.958 275.165 140.447 274.909 139.727C274.813 139.458 274.766 139.2 274.767 138.953C274.768 138.704 274.792 138.394 274.837 138.021C274.874 137.774 274.896 137.566 274.905 137.398C274.914 137.23 274.892 137.073 274.84 136.926C274.684 136.487 274.306 136.313 273.705 136.403L273.067 134.609ZM265.09 157.791C264.76 156.552 264.747 155.335 265.052 154.142C265.358 152.948 265.946 151.909 266.817 151.027C267.688 150.146 268.774 149.531 270.076 149.184C271.377 148.838 272.626 148.83 273.82 149.163C275.014 149.494 276.037 150.103 276.89 150.989C277.742 151.874 278.333 152.937 278.663 154.176C278.996 155.427 279.012 156.646 278.712 157.832C278.412 159.018 277.825 160.049 276.952 160.924C276.08 161.8 274.992 162.411 273.691 162.758C272.389 163.104 271.143 163.115 269.95 162.789C268.757 162.463 267.731 161.859 266.872 160.975C266.014 160.091 265.42 159.03 265.09 157.791ZM268.507 156.881C268.757 157.819 269.261 158.479 270.019 158.86C270.777 159.241 271.67 159.295 272.696 159.022C273.747 158.742 274.504 158.249 274.966 157.542C275.428 156.837 275.534 156.014 275.284 155.076C275.031 154.124 274.529 153.461 273.778 153.084C273.028 152.707 272.127 152.659 271.076 152.939C270.037 153.216 269.286 153.704 268.822 154.404C268.358 155.104 268.253 155.929 268.507 156.881Z" fill="white"/>
<path d="M103.51 55.8323L104.437 57.2542L107.219 55.4401L108.42 57.2822L105.639 59.0963L106.662 60.6664L109.815 58.6106L111.081 60.5518L105.505 64.1877L99.8211 55.4718L105.397 51.8356L106.663 53.7766L103.51 55.8323ZM110.727 51.2017L111.579 52.6693L114.451 51.0013L115.555 52.9031L112.683 54.5711L113.625 56.1918L116.88 54.3017L118.043 56.3056L112.287 59.6485L107.061 50.651L112.817 47.3076L113.981 49.3111L110.727 51.2017ZM118.1 47.1841L118.874 48.6944L121.83 47.1795L122.833 49.1365L119.877 50.6514L120.733 52.3193L124.082 50.6022L125.139 52.6647L119.215 55.7016L114.468 46.4421L120.392 43.4053L121.449 45.467L118.1 47.1841ZM131.645 42.8183C131.87 43.4067 131.94 43.9933 131.854 44.5799C131.768 45.1661 131.507 45.7089 131.072 46.2082C130.636 46.707 130.024 47.1085 129.233 47.4116L127.897 47.9245L129.155 51.204L126.454 52.2402L122.727 42.5254L126.764 40.9762C127.545 40.6768 128.262 40.5597 128.914 40.6254C129.566 40.6912 130.124 40.9149 130.586 41.296C131.049 41.6773 131.401 42.1845 131.645 42.8183ZM128.147 45.362C128.909 45.0694 129.157 44.5742 128.888 43.8758C128.617 43.169 128.1 42.9612 127.338 43.2537L126.263 43.6661L127.072 45.7746L128.147 45.362ZM144.147 39.2538C144.306 39.8634 144.311 40.4546 144.161 41.0279C144.012 41.6009 143.693 42.1119 143.204 42.5598C142.717 43.0077 142.063 43.3395 141.245 43.5538L139.86 43.9158L140.749 47.3141L137.95 48.0465L135.316 37.9805L139.5 36.8852C140.309 36.6736 141.034 36.6361 141.675 36.7737C142.316 36.9109 142.845 37.1944 143.263 37.6245C143.68 38.0542 143.975 38.5973 144.147 39.2538ZM140.391 41.3972C141.18 41.1905 141.481 40.7251 141.291 40.0014C141.099 39.2686 140.609 39.0056 139.819 39.2122L138.705 39.5037L139.277 41.6886L140.391 41.3972ZM152.276 44.8774L149.683 41.3741L149.376 41.4179L149.924 45.2163L147.061 45.6291L145.576 35.3299L150.091 34.6794C150.918 34.5604 151.64 34.6028 152.256 34.8072C152.872 35.0117 153.363 35.3439 153.727 35.8035C154.092 36.2627 154.318 36.8043 154.408 37.4271C154.509 38.1286 154.406 38.7724 154.098 39.3581C153.79 39.9448 153.281 40.4031 152.574 40.7342L155.475 44.4162L152.276 44.8774ZM149.095 39.4606L150.511 39.2565C150.901 39.2005 151.18 39.0655 151.348 38.8525C151.516 38.6397 151.575 38.3573 151.525 38.007C151.477 37.6758 151.339 37.4298 151.112 37.2687C150.885 37.107 150.582 37.0545 150.202 37.1089L148.785 37.313L149.095 39.4606ZM161.667 44.0598C160.693 44.0878 159.792 43.8853 158.962 43.4514C158.133 43.0167 157.468 42.4014 156.967 41.6031C156.467 40.8057 156.202 39.8952 156.173 38.8721C156.144 37.8497 156.356 36.9253 156.81 36.1002C157.263 35.2751 157.892 34.6246 158.695 34.1487C159.499 33.673 160.387 33.4213 161.361 33.3933C162.345 33.3653 163.249 33.5657 164.073 33.995C164.898 34.424 165.558 35.0374 166.053 35.8356C166.548 36.6334 166.811 37.5436 166.84 38.5668C166.869 39.5898 166.659 40.5135 166.211 41.3382C165.762 42.1633 165.136 42.8161 164.332 43.2971C163.529 43.7779 162.641 44.0322 161.667 44.0598ZM161.59 41.3749C162.328 41.3537 162.904 41.096 163.317 40.602C163.731 40.1076 163.927 39.4571 163.904 38.6506C163.88 37.8247 163.648 37.1793 163.206 36.7143C162.765 36.2494 162.175 36.0275 161.437 36.0487C160.69 36.0703 160.111 36.3254 159.702 36.8149C159.293 37.3039 159.1 37.962 159.124 38.7878C159.147 39.6042 159.377 40.2448 159.814 40.7097C160.25 41.1746 160.842 41.3965 161.59 41.3749ZM175.643 33.5051L175.577 35.8065L171.417 35.6874L171.365 37.5172L174.433 37.6052L174.37 39.8034L171.301 39.7153L171.185 43.7874L168.293 43.7042L168.591 33.303L175.643 33.5051ZM180.582 36.353L180.34 38.033L183.627 38.507L183.313 40.6835L180.026 40.2101L179.759 42.0654L183.484 42.6017L183.154 44.8955L176.565 43.9461L178.049 33.6473L184.638 34.5967L184.307 36.8901L180.582 36.353ZM188.473 46.0535C187.287 45.8131 186.37 45.3336 185.722 44.6154C185.074 43.897 184.828 43.0061 184.983 41.9433L188.006 42.5556C187.963 42.9181 188.017 43.2001 188.167 43.4014C188.316 43.6022 188.536 43.7322 188.825 43.7903C189.086 43.8433 189.314 43.8218 189.509 43.7258C189.704 43.6294 189.825 43.4661 189.872 43.2348C189.932 42.9354 189.84 42.6762 189.593 42.455C189.347 42.2348 188.931 41.9595 188.345 41.6299C187.724 41.2733 187.23 40.9501 186.862 40.6598C186.494 40.3695 186.198 39.9934 185.976 39.5316C185.753 39.0698 185.707 38.5161 185.838 37.8698C185.971 37.2139 186.249 36.6857 186.671 36.2842C187.093 35.8829 187.619 35.6202 188.246 35.4962C188.873 35.3722 189.554 35.3848 190.287 35.5329C191.473 35.7733 192.364 36.2423 192.961 36.9403C193.557 37.6385 193.779 38.4938 193.624 39.5066L190.542 38.8826C190.595 38.5724 190.549 38.3214 190.401 38.1313C190.253 37.9408 190.04 37.8173 189.761 37.7605C189.549 37.7178 189.362 37.7454 189.202 37.8429C189.041 37.9411 188.938 38.1059 188.891 38.3373C188.852 38.5305 188.893 38.7118 189.014 38.8819C189.135 39.0519 189.296 39.21 189.498 39.3562C189.699 39.5025 190.001 39.6968 190.404 39.939C191.005 40.2913 191.493 40.619 191.869 40.9206C192.244 41.223 192.545 41.5994 192.769 42.0518C192.994 42.5042 193.046 43.0287 192.925 43.6267C192.802 44.2341 192.539 44.7485 192.138 45.1691C191.737 45.5902 191.221 45.8819 190.591 46.0457C189.96 46.2089 189.254 46.2114 188.473 46.0535ZM197.331 48.1878C196.179 47.8163 195.321 47.2381 194.757 46.4519C194.194 45.6654 194.048 44.7526 194.321 43.7141L197.257 44.6597C197.174 45.015 197.195 45.301 197.322 45.518C197.449 45.7342 197.653 45.8877 197.933 45.9783C198.187 46.0595 198.415 46.0638 198.62 45.9903C198.825 45.917 198.963 45.7677 199.035 45.5433C199.129 45.2522 199.065 44.9842 198.845 44.7374C198.625 44.4906 198.242 44.1713 197.696 43.7782C197.12 43.3545 196.665 42.9781 196.332 42.6489C195.998 42.3189 195.746 41.9126 195.577 41.4285C195.407 40.9448 195.423 40.3894 195.625 39.7621C195.83 39.1249 196.165 38.6309 196.63 38.2794C197.094 37.9275 197.645 37.7249 198.283 37.6713C198.92 37.6188 199.595 37.7063 200.307 37.9354C201.459 38.307 202.292 38.8723 202.807 39.6329C203.322 40.3929 203.446 41.2674 203.179 42.2566L200.187 41.2932C200.274 40.9905 200.255 40.7361 200.13 40.5305C200.005 40.3249 199.807 40.1782 199.535 40.0909C199.329 40.0243 199.141 40.0312 198.971 40.1106C198.8 40.19 198.679 40.3422 198.607 40.5668C198.546 40.7542 198.567 40.9394 198.668 41.1216C198.77 41.3045 198.912 41.4795 199.096 41.6473C199.28 41.8147 199.558 42.0416 199.932 42.3273C200.489 42.7441 200.939 43.1243 201.278 43.4663C201.617 43.8085 201.874 44.2162 202.047 44.6906C202.219 45.1649 202.213 45.6925 202.025 46.2734C201.836 46.8634 201.517 47.3449 201.072 47.7184C200.626 48.0914 200.081 48.3242 199.436 48.4165C198.791 48.5086 198.089 48.4321 197.331 48.1878ZM206.939 51.6166C206.03 51.2674 205.276 50.733 204.677 50.0134C204.079 49.2938 203.702 48.4694 203.547 47.5405C203.392 46.6118 203.498 45.6696 203.865 44.7141C204.232 43.7586 204.783 42.9875 205.519 42.4006C206.256 41.8137 207.086 41.455 208.011 41.325C208.936 41.1954 209.853 41.3046 210.762 41.6534C211.68 42.0057 212.438 42.539 213.033 43.2522C213.629 43.9658 214.002 44.7859 214.152 45.713C214.303 46.6398 214.194 47.5817 213.828 48.5371C213.461 49.4922 212.912 50.2644 212.18 50.8528C211.449 51.4417 210.619 51.803 209.693 51.9379C208.766 52.0725 207.849 51.9655 206.939 51.6166ZM207.901 49.1086C208.591 49.3728 209.221 49.3565 209.793 49.0598C210.366 48.7631 210.796 48.2378 211.085 47.4849C211.381 46.7132 211.415 46.0275 211.187 45.4287C210.958 44.8301 210.499 44.3985 209.81 44.1339C209.112 43.8659 208.479 43.8791 207.914 44.1729C207.348 44.4669 206.917 44.9998 206.621 45.7715C206.328 46.5339 206.294 47.2139 206.518 47.811C206.742 48.4082 207.203 48.8406 207.901 49.1086ZM217.701 56.6453L217.613 52.2879L217.337 52.1465L215.587 55.5613L213.012 54.2416L217.759 44.9821L221.818 47.0628C222.562 47.4445 223.126 47.8965 223.511 48.4199C223.895 48.943 224.103 49.4971 224.134 50.0825C224.166 50.6683 224.037 51.2417 223.75 51.8018C223.427 52.4322 222.971 52.8972 222.38 53.1973C221.789 53.4973 221.109 53.5774 220.341 53.4379L220.577 58.1201L217.701 56.6453ZM218.24 50.3867L219.513 51.0399C219.864 51.2194 220.169 51.2709 220.43 51.1945C220.69 51.1174 220.901 50.9215 221.063 50.6063C221.215 50.3089 221.246 50.0285 221.153 49.7658C221.061 49.5027 220.845 49.2839 220.503 49.1089L219.23 48.4558L218.24 50.3867ZM228.133 61.0654L225.042 59.0498L223.646 60.1655L221.099 58.5049L229.96 51.8605L232.753 53.6822L230.235 64.4621L227.676 62.7934L228.133 61.0654ZM228.737 58.8155L229.635 55.3845L226.87 57.5985L228.737 58.8155Z" fill="white"/>
<path d="M137.454 85.7095C137.454 84.6958 137.683 83.7883 138.141 82.9859C138.598 82.1843 139.223 81.5595 140.015 81.1117C140.807 80.6642 141.695 80.4405 142.679 80.4405C143.83 80.4405 144.839 80.7353 145.705 81.3257C146.571 81.9163 147.176 82.7327 147.52 83.7759H145.144C144.908 83.2838 144.576 82.9149 144.148 82.6693C143.72 82.4229 143.225 82.2999 142.664 82.2999C142.064 82.2999 141.53 82.4402 141.063 82.7206C140.596 83.0007 140.231 83.3972 139.971 83.9086C139.71 84.4204 139.579 85.0205 139.579 85.7095C139.579 86.3887 139.71 86.9862 139.971 87.5029C140.231 88.0191 140.596 88.4175 141.063 88.6983C141.53 88.9787 142.064 89.1186 142.664 89.1186C143.225 89.1186 143.72 88.9935 144.148 88.7426C144.576 88.4915 144.908 88.1201 145.144 87.6279H147.52C147.176 88.681 146.573 89.5 145.712 90.0854C144.851 90.6713 143.84 90.9638 142.679 90.9638C141.695 90.9638 140.807 90.7401 140.015 90.2922C139.223 89.8443 138.598 89.2222 138.141 88.4252C137.683 87.628 137.454 86.7227 137.454 85.7095ZM154.604 90.8754L152.331 86.8607H151.358V90.8754H149.291V80.5731H153.158C153.955 80.5731 154.634 80.7133 155.195 80.9938C155.756 81.2742 156.177 81.6529 156.457 82.1304C156.737 82.6073 156.878 83.1413 156.878 83.7317C156.878 84.4105 156.681 85.0231 156.287 85.5693C155.894 86.1154 155.308 86.4916 154.531 86.6982L156.995 90.8754H154.604ZM151.358 85.3111H153.084C153.645 85.3111 154.063 85.1754 154.339 84.9053C154.614 84.6342 154.752 84.2582 154.752 83.7759C154.752 83.3034 154.614 82.9373 154.339 82.6765C154.063 82.4157 153.645 82.2853 153.084 82.2853H151.358V85.3111ZM160.818 82.2406V84.8235H164.287V86.4619H160.818V89.1927H164.73V90.8754H158.752V80.5583H164.73V82.2406H160.818ZM170.205 80.5731C171.288 80.5731 172.24 80.7843 173.061 81.2077C173.883 81.631 174.518 82.2334 174.966 83.0158C175.413 83.7982 175.637 84.7057 175.637 85.739C175.637 86.7723 175.413 87.6749 174.966 88.4474C174.518 89.2199 173.883 89.8174 173.061 90.2403C172.24 90.6637 171.288 90.8754 170.205 90.8754H166.604V80.5731H170.205ZM170.132 89.1186C171.214 89.1186 172.05 88.8238 172.641 88.2331C173.231 87.6427 173.526 86.8115 173.526 85.739C173.526 84.6663 173.231 83.8277 172.641 83.2226C172.05 82.6171 171.214 82.3148 170.132 82.3148H168.67V89.1186H170.132ZM179.253 82.2406V84.8235H182.722V86.4619H179.253V89.1927H183.165V90.8754H177.187V80.5583H183.165V82.2406H179.253ZM188.064 82.0196V80.1154H191.621V90.8754H189.496V82.0196H188.064ZM193.407 82.0196V80.1154H196.964V90.8754H194.839V82.0196H193.407Z" fill="white"/>
<path fill-rule="evenodd" clip-rule="evenodd" d="M166.24 113.568C207.854 113.568 241.59 165.138 241.59 228.752C241.59 292.367 207.854 343.937 166.24 343.937C124.625 343.937 90.8904 292.367 90.8904 228.752C90.8904 165.138 124.625 113.568 166.24 113.568Z" fill="#2F9E5E"/>
<path fill-rule="evenodd" clip-rule="evenodd" d="M166.24 118.855C205.945 118.855 238.131 168.057 238.131 228.752C238.131 289.447 205.945 338.651 166.24 338.651C126.535 338.651 94.3487 289.447 94.3487 228.752C94.3487 168.057 126.535 118.855 166.24 118.855Z" fill="#03805E"/>
<mask id="mask2_160_4" style="mask-type:luminance" maskUnits="userSpaceOnUse" x="229" y="166" width="57" height="135">
<path d="M240.832 284.969C246.402 292.511 254.095 298.281 258.034 300.842C247.306 292.528 249.371 272.074 265.193 247.534C274.037 233.84 291.691 203.941 283.896 169.81C283.506 173.678 274.019 184.513 273.431 183.4C271.241 179.248 267.061 173.917 259.317 166.52C270.884 189.703 253.894 218.914 243.481 235.039C227.52 259.753 225.541 280.199 236.415 288.427C236.198 286.778 239.495 285.935 240.832 284.969Z" fill="white"/>
</mask>
<g mask="url(#mask2_160_4)">
<path fill-rule="evenodd" clip-rule="evenodd" d="M240.832 284.969C246.402 292.511 254.095 298.281 258.034 300.842C247.306 292.528 249.371 272.074 265.193 247.534C274.037 233.84 291.691 203.941 283.896 169.81C283.506 173.678 274.019 184.513 273.431 183.4C271.241 179.248 267.061 173.917 259.317 166.52C270.884 189.703 253.894 218.914 243.481 235.039C227.52 259.753 225.541 280.199 236.415 288.427C236.198 286.778 239.495 285.935 240.832 284.969Z" fill="url(#paint2_linear_160_4)"/>
</g>
<mask id="mask3_160_4" style="mask-type:luminance" maskUnits="userSpaceOnUse" x="47" y="166" width="57" height="135">
<path d="M92.1962 284.969C86.626 292.511 78.9334 298.282 74.9941 300.843C85.7222 292.528 83.6574 272.074 67.8349 247.534C58.9912 233.84 41.337 203.941 49.1326 169.811C49.5222 173.678 59.0097 184.513 59.5971 183.401C61.7876 179.249 65.967 173.917 73.7109 166.52C62.1444 189.703 79.1341 218.914 89.5472 235.039C105.508 259.753 107.487 280.2 96.6133 288.428C96.8302 286.778 93.5337 285.936 92.1962 284.969Z" fill="white"/>
</mask>
<g mask="url(#mask3_160_4)">
<path fill-rule="evenodd" clip-rule="evenodd" d="M92.1962 284.969C86.626 292.511 78.9334 298.282 74.9941 300.843C85.7222 292.528 83.6574 272.074 67.8349 247.534C58.9912 233.84 41.337 203.941 49.1326 169.811C49.5222 173.678 59.0097 184.513 59.5971 183.401C61.7876 179.249 65.967 173.917 73.7109 166.52C62.1444 189.703 79.1341 218.914 89.5472 235.039C105.508 259.753 107.487 280.2 96.6133 288.428C96.8302 286.778 93.5337 285.936 92.1962 284.969Z" fill="url(#paint3_linear_160_4)"/>
</g>
<path fill-rule="evenodd" clip-rule="evenodd" d="M77.6941 190.163V269.063C77.6941 313.205 117.556 349.322 166.277 349.322C214.997 349.322 254.859 313.205 254.859 269.063V190.163C254.859 169.364 257.641 140.756 223.644 145.424C223.907 147.438 224.048 188.089 224.048 190.163V269.063C224.048 297.796 197.99 321.406 166.277 321.406C134.563 321.406 108.505 297.796 108.505 269.063V190.163C108.505 188.089 108.645 147.438 108.909 145.424C78.6209 141.222 77.6941 171.635 77.6941 190.163Z" fill="#FFDA5B"/>
<mask id="mask4_160_4" style="mask-type:luminance" maskUnits="userSpaceOnUse" x="203" y="237" width="56" height="114">
<path d="M258.042 314.444H258.061C258.061 352.337 228.229 358.389 203.997 341.501C209.447 339.279 221.752 331.694 226.617 327.58C231.175 327.133 234.978 325.922 235.235 322.877C236.686 305.66 235.232 288.305 235.232 271.018H235.213C235.213 255.184 235.588 237.319 258.061 237.391C258.04 261.243 258.042 290.589 258.042 314.444Z" fill="white"/>
</mask>
<g mask="url(#mask4_160_4)">
<path fill-rule="evenodd" clip-rule="evenodd" d="M258.042 314.444H258.061C258.061 352.337 228.229 358.389 203.997 341.501C209.447 339.279 221.752 331.694 226.617 327.58C231.175 327.133 234.978 325.922 235.235 322.877C236.686 305.66 235.232 288.305 235.232 271.018H235.213C235.213 255.184 235.588 237.319 258.061 237.391C258.04 261.243 258.042 290.589 258.042 314.444Z" fill="url(#paint4_linear_160_4)"/>
</g>
<mask id="mask5_160_4" style="mask-type:luminance" maskUnits="userSpaceOnUse" x="75" y="237" width="55" height="114">
<path d="M75.0246 314.444H75.0054C75.0054 352.337 104.838 358.389 129.07 341.501C123.619 339.279 111.315 331.694 106.45 327.58C101.891 327.133 98.0885 325.922 97.8323 322.877C96.3801 305.66 97.8349 288.305 97.8349 271.018H97.8541C97.8541 255.184 97.4792 237.319 75.0058 237.391C75.0269 261.243 75.0246 290.589 75.0246 314.444Z" fill="white"/>
</mask>
<g mask="url(#mask5_160_4)">
<path fill-rule="evenodd" clip-rule="evenodd" d="M75.0246 314.444H75.0054C75.0054 352.337 104.838 358.389 129.07 341.501C123.619 339.279 111.315 331.694 106.45 327.58C101.891 327.133 98.0885 325.922 97.8323 322.877C96.3801 305.66 97.8349 288.305 97.8349 271.018H97.8541C97.8541 255.184 97.4792 237.319 75.0058 237.391C75.0269 261.243 75.0246 290.589 75.0246 314.444Z" fill="url(#paint5_linear_160_4)"/>
</g>
<path fill-rule="evenodd" clip-rule="evenodd" d="M219.333 239.243V231.98L218.288 231.57C217.921 231.427 209.387 228.114 198.004 228.114C185.809 228.114 175.306 231.83 166.756 239.16C158.21 231.83 147.703 228.114 135.508 228.114C124.121 228.114 115.587 231.427 115.232 231.57L114.177 231.98V238.708C110.732 239.352 108.584 240.507 108.584 242.391C108.584 252.197 108.584 311.719 108.584 311.719H159.646C161.413 313.298 163.997 314.295 166.885 314.295C169.777 314.295 172.356 313.298 174.123 311.719H223.895C223.895 311.719 223.895 245.833 223.895 242.391C223.891 240.859 222.15 239.859 219.333 239.243ZM166.203 306.25C161.967 304.495 147.367 298.95 132.746 298.95C126.967 298.95 121.847 299.836 117.49 301.588L117.488 234.273C120.031 233.423 126.965 231.419 135.504 231.419C146.733 231.419 156.381 234.816 164.26 241.434V281.617L166.202 279.477L166.203 306.25ZM216.015 301.607C211.335 299.724 205.96 298.778 200.004 298.778C185.389 298.778 171.482 304.378 167.294 306.217V279.469L169.246 281.616L169.248 241.434C177.123 234.812 186.771 231.419 198 231.419C206.51 231.419 213.468 233.427 216.015 234.273L216.015 301.607Z" fill="#04A65B"/>
<path fill-rule="evenodd" clip-rule="evenodd" d="M169.248 241.434L169.246 274.998V281.616L167.294 279.469V306.217C171.482 304.377 185.389 298.778 200.004 298.778C205.96 298.778 211.336 299.724 216.015 301.607V274.998V234.273C213.468 233.427 206.51 231.419 198 231.419C186.772 231.419 177.123 234.812 169.248 241.434ZM164.261 274.998V241.434C156.381 234.816 146.733 231.419 135.504 231.419C132.383 231.419 129.476 231.686 126.92 232.068C122.483 232.73 119.102 233.734 117.488 234.273L117.49 301.588C121.847 299.836 126.968 298.95 132.746 298.95C147.367 298.95 161.967 304.495 166.203 306.25L166.202 279.477L164.261 281.617L164.261 274.998Z" fill="#F8FCFE"/>
<path d="M133.108 263.269L131.439 267.694H130.772L129.103 263.269H129.719L131.109 267.084L132.499 263.269H133.108ZM134.041 263.65C133.931 263.65 133.838 263.612 133.762 263.536C133.686 263.46 133.648 263.367 133.648 263.257C133.648 263.147 133.686 263.053 133.762 262.977C133.838 262.901 133.931 262.863 134.041 262.863C134.147 262.863 134.237 262.901 134.311 262.977C134.385 263.053 134.422 263.147 134.422 263.257C134.422 263.367 134.385 263.46 134.311 263.536C134.237 263.612 134.147 263.65 134.041 263.65ZM134.32 264.215V267.694H133.743V264.215H134.32ZM136.6 267.161L137.679 264.215H138.294L136.93 267.694H136.257L134.892 264.215H135.514L136.6 267.161ZM142.04 265.821C142.04 265.931 142.033 266.047 142.021 266.17H139.24C139.262 266.513 139.379 266.781 139.593 266.973C139.806 267.166 140.065 267.262 140.37 267.262C140.62 267.262 140.828 267.204 140.996 267.088C141.163 266.971 141.28 266.815 141.348 266.621H141.97C141.877 266.955 141.691 267.227 141.411 267.437C141.132 267.646 140.785 267.751 140.37 267.751C140.04 267.751 139.745 267.677 139.485 267.529C139.225 267.38 139.02 267.17 138.872 266.897C138.724 266.624 138.65 266.308 138.65 265.948C138.65 265.588 138.722 265.273 138.866 265.002C139.01 264.731 139.212 264.523 139.472 264.377C139.733 264.231 140.032 264.158 140.37 264.158C140.7 264.158 140.993 264.23 141.247 264.374C141.5 264.518 141.696 264.715 141.833 264.967C141.971 265.219 142.04 265.504 142.04 265.821ZM141.443 265.701C141.443 265.481 141.394 265.291 141.297 265.132C141.2 264.974 141.068 264.853 140.9 264.77C140.733 264.688 140.548 264.647 140.345 264.647C140.053 264.647 139.804 264.74 139.599 264.926C139.394 265.112 139.276 265.371 139.247 265.701H141.443ZM144.497 264.152C144.919 264.152 145.263 264.279 145.525 264.536C145.787 264.791 145.918 265.161 145.918 265.643V267.694H145.347V265.726C145.347 265.379 145.26 265.113 145.087 264.929C144.913 264.745 144.677 264.653 144.376 264.653C144.071 264.653 143.829 264.748 143.649 264.939C143.469 265.129 143.379 265.406 143.379 265.77V267.694H142.801V264.215H143.379V264.71C143.493 264.533 143.649 264.395 143.846 264.297C144.043 264.2 144.26 264.152 144.497 264.152ZM146.649 265.942C146.649 265.586 146.72 265.274 146.864 265.005C147.008 264.737 147.206 264.528 147.458 264.38C147.71 264.232 147.992 264.158 148.305 264.158C148.576 264.158 148.828 264.22 149.061 264.345C149.294 264.47 149.471 264.634 149.594 264.837V262.996H150.178V267.694H149.594V267.04C149.479 267.247 149.31 267.417 149.086 267.551C148.862 267.684 148.599 267.751 148.299 267.751C147.99 267.751 147.71 267.675 147.458 267.522C147.206 267.37 147.008 267.156 146.864 266.881C146.72 266.606 146.649 266.293 146.649 265.942ZM149.594 265.948C149.594 265.686 149.541 265.457 149.435 265.263C149.329 265.068 149.187 264.919 149.007 264.815C148.827 264.711 148.629 264.66 148.413 264.66C148.197 264.66 148 264.71 147.823 264.812C147.645 264.913 147.503 265.062 147.397 265.257C147.292 265.451 147.239 265.68 147.239 265.942C147.239 266.209 147.292 266.44 147.397 266.637C147.503 266.834 147.645 266.984 147.823 267.088C148 267.191 148.197 267.243 148.413 267.243C148.629 267.243 148.827 267.191 149.007 267.088C149.187 266.984 149.329 266.834 149.435 266.637C149.541 266.44 149.594 266.211 149.594 265.948ZM152.672 267.751C152.347 267.751 152.051 267.677 151.787 267.529C151.523 267.381 151.315 267.17 151.165 266.897C151.015 266.625 150.939 266.308 150.939 265.948C150.939 265.593 151.017 265.279 151.171 265.006C151.326 264.733 151.536 264.523 151.803 264.377C152.07 264.231 152.368 264.158 152.698 264.158C153.028 264.158 153.326 264.231 153.593 264.377C153.86 264.523 154.07 264.732 154.225 265.002C154.379 265.273 154.456 265.588 154.456 265.948C154.456 266.308 154.377 266.625 154.218 266.897C154.059 267.17 153.845 267.381 153.574 267.529C153.303 267.677 153.003 267.751 152.672 267.751ZM152.672 267.243C152.88 267.243 153.075 267.194 153.257 267.097C153.439 267 153.586 266.854 153.698 266.659C153.81 266.464 153.866 266.228 153.866 265.948C153.866 265.669 153.811 265.432 153.701 265.237C153.591 265.042 153.447 264.898 153.269 264.803C153.092 264.707 152.899 264.66 152.692 264.66C152.48 264.66 152.286 264.707 152.111 264.803C151.935 264.898 151.794 265.042 151.689 265.237C151.583 265.432 151.53 265.669 151.53 265.948C151.53 266.232 151.582 266.471 151.685 266.666C151.789 266.86 151.928 267.005 152.101 267.101C152.275 267.196 152.465 267.243 152.672 267.243ZM130.357 274.919C130.031 274.919 129.736 274.844 129.471 274.697C129.207 274.549 128.999 274.338 128.849 274.065C128.699 273.792 128.624 273.476 128.624 273.116C128.624 272.76 128.701 272.446 128.855 272.174C129.01 271.9 129.221 271.691 129.487 271.545C129.754 271.399 130.052 271.326 130.382 271.326C130.712 271.326 131.01 271.399 131.277 271.545C131.544 271.691 131.754 271.9 131.909 272.17C132.063 272.441 132.141 272.756 132.141 273.116C132.141 273.476 132.061 273.792 131.902 274.065C131.744 274.338 131.529 274.549 131.258 274.697C130.987 274.844 130.687 274.919 130.357 274.919ZM130.357 274.411C130.564 274.411 130.759 274.362 130.941 274.265C131.123 274.168 131.27 274.021 131.382 273.827C131.494 273.632 131.55 273.395 131.55 273.116C131.55 272.837 131.495 272.6 131.385 272.405C131.275 272.21 131.131 272.065 130.953 271.97C130.776 271.875 130.583 271.828 130.376 271.828C130.164 271.828 129.97 271.875 129.795 271.97C129.619 272.065 129.478 272.21 129.373 272.405C129.267 272.6 129.214 272.837 129.214 273.116C129.214 273.4 129.266 273.638 129.369 273.834C129.473 274.028 129.612 274.173 129.785 274.268C129.959 274.363 130.149 274.411 130.357 274.411ZM134.381 273.11C134.381 272.754 134.453 272.442 134.597 272.174C134.741 271.905 134.939 271.696 135.191 271.548C135.442 271.4 135.725 271.326 136.038 271.326C136.338 271.326 136.602 271.393 136.828 271.526C137.055 271.659 137.221 271.823 137.326 272.018V271.383H137.911V276.512H137.326V274.221C137.216 274.415 137.047 274.58 136.819 274.716C136.591 274.851 136.324 274.919 136.019 274.919C135.714 274.919 135.437 274.843 135.187 274.69C134.938 274.538 134.741 274.324 134.597 274.049C134.453 273.774 134.381 273.461 134.381 273.11ZM137.326 273.116C137.326 272.854 137.273 272.625 137.168 272.431C137.062 272.236 136.919 272.087 136.739 271.983C136.56 271.879 136.361 271.828 136.146 271.828C135.93 271.828 135.733 271.878 135.556 271.98C135.378 272.082 135.236 272.23 135.13 272.424C135.025 272.619 134.972 272.848 134.972 273.11C134.972 273.377 135.025 273.608 135.13 273.805C135.236 274.002 135.378 274.152 135.556 274.256C135.733 274.36 135.93 274.411 136.146 274.411C136.361 274.411 136.56 274.36 136.739 274.256C136.919 274.152 137.062 274.002 137.168 273.805C137.273 273.608 137.326 273.378 137.326 273.116ZM141.973 271.384V274.862H141.395V274.348C141.285 274.525 141.132 274.664 140.935 274.764C140.739 274.863 140.522 274.913 140.285 274.913C140.014 274.913 139.771 274.857 139.554 274.745C139.339 274.632 139.169 274.464 139.043 274.24C138.919 274.016 138.856 273.742 138.856 273.421V271.384H139.427V273.345C139.427 273.688 139.515 273.951 139.688 274.135C139.861 274.319 140.098 274.411 140.399 274.411C140.708 274.411 140.951 274.316 141.129 274.126C141.307 273.935 141.395 273.658 141.395 273.294V271.384H141.973ZM146.125 272.989C146.125 273.099 146.118 273.216 146.106 273.339H143.326C143.346 273.681 143.464 273.949 143.678 274.141C143.891 274.334 144.151 274.431 144.455 274.431C144.705 274.431 144.913 274.372 145.081 274.256C145.248 274.139 145.365 273.984 145.433 273.789H146.055C145.962 274.124 145.776 274.395 145.496 274.605C145.217 274.815 144.87 274.919 144.455 274.919C144.125 274.919 143.83 274.845 143.57 274.697C143.309 274.549 143.105 274.338 142.957 274.065C142.809 273.792 142.735 273.476 142.735 273.116C142.735 272.757 142.807 272.441 142.951 272.17C143.095 271.9 143.297 271.691 143.557 271.545C143.817 271.399 144.117 271.327 144.455 271.327C144.785 271.327 145.077 271.398 145.331 271.542C145.585 271.686 145.781 271.884 145.919 272.136C146.056 272.387 146.125 272.672 146.125 272.989ZM145.528 272.869C145.528 272.649 145.48 272.459 145.382 272.301C145.285 272.142 145.153 272.021 144.985 271.939C144.818 271.856 144.633 271.815 144.43 271.815C144.138 271.815 143.89 271.908 143.684 272.095C143.479 272.28 143.361 272.539 143.332 272.869H145.528ZM149.813 274.919C149.546 274.919 149.307 274.874 149.095 274.782C148.884 274.692 148.717 274.565 148.594 274.402C148.471 274.239 148.404 274.051 148.391 273.84H148.987C149.005 274.014 149.086 274.155 149.232 274.265C149.378 274.375 149.569 274.431 149.806 274.431C150.027 274.431 150.2 274.381 150.327 274.284C150.454 274.187 150.518 274.064 150.518 273.916C150.518 273.764 150.45 273.65 150.314 273.576C150.179 273.503 149.97 273.429 149.686 273.358C149.428 273.29 149.217 273.221 149.054 273.151C148.891 273.082 148.752 272.978 148.635 272.84C148.519 272.703 148.461 272.522 148.461 272.297C148.461 272.12 148.514 271.957 148.619 271.808C148.725 271.661 148.875 271.543 149.07 271.457C149.265 271.37 149.487 271.327 149.737 271.327C150.122 271.327 150.433 271.424 150.67 271.618C150.907 271.813 151.034 272.08 151.051 272.418H150.473C150.461 272.236 150.387 272.09 150.254 271.98C150.121 271.87 149.942 271.815 149.718 271.815C149.511 271.815 149.345 271.859 149.223 271.948C149.1 272.037 149.038 272.153 149.038 272.297C149.038 272.412 149.075 272.506 149.15 272.58C149.224 272.654 149.317 272.713 149.429 272.758C149.541 272.802 149.696 272.852 149.895 272.907C150.145 272.975 150.348 273.041 150.505 273.107C150.661 273.172 150.795 273.271 150.908 273.402C151.02 273.533 151.078 273.705 151.082 273.916C151.082 274.106 151.029 274.278 150.924 274.431C150.818 274.583 150.669 274.702 150.476 274.789C150.284 274.876 150.062 274.919 149.813 274.919ZM155.069 272.989C155.069 273.099 155.062 273.216 155.05 273.339H152.27C152.291 273.681 152.408 273.949 152.622 274.141C152.836 274.334 153.095 274.431 153.4 274.431C153.649 274.431 153.858 274.372 154.025 274.256C154.192 274.139 154.31 273.984 154.377 273.789H154.999C154.906 274.124 154.72 274.395 154.441 274.605C154.161 274.815 153.814 274.919 153.4 274.919C153.07 274.919 152.774 274.845 152.514 274.697C152.254 274.549 152.05 274.338 151.902 274.065C151.753 273.792 151.68 273.476 151.68 273.116C151.68 272.757 151.751 272.441 151.895 272.17C152.039 271.9 152.241 271.691 152.501 271.545C152.762 271.399 153.061 271.327 153.4 271.327C153.73 271.327 154.022 271.398 154.276 271.542C154.529 271.686 154.725 271.884 154.863 272.136C155 272.387 155.069 272.672 155.069 272.989ZM154.472 272.869C154.472 272.649 154.424 272.459 154.326 272.301C154.229 272.142 154.097 272.021 153.929 271.939C153.762 271.856 153.577 271.815 153.374 271.815C153.082 271.815 152.834 271.908 152.628 272.095C152.423 272.28 152.305 272.539 152.276 272.869H154.472ZM134.895 280.157C134.895 280.267 134.889 280.383 134.876 280.506H132.096C132.117 280.849 132.235 281.117 132.448 281.309C132.662 281.502 132.921 281.598 133.226 281.598C133.475 281.598 133.684 281.54 133.851 281.423C134.018 281.307 134.136 281.151 134.203 280.957H134.825C134.733 281.291 134.546 281.563 134.267 281.773C133.988 281.982 133.641 282.087 133.226 282.087C132.896 282.087 132.601 282.013 132.34 281.865C132.08 281.717 131.876 281.506 131.728 281.233C131.58 280.96 131.506 280.644 131.506 280.284C131.506 279.924 131.577 279.609 131.721 279.338C131.865 279.067 132.067 278.859 132.328 278.713C132.588 278.567 132.887 278.494 133.226 278.494C133.556 278.494 133.848 278.566 134.102 278.71C134.356 278.854 134.551 279.051 134.689 279.304C134.827 279.555 134.895 279.84 134.895 280.157ZM134.299 280.037C134.299 279.816 134.25 279.627 134.152 279.469C134.055 279.31 133.923 279.189 133.756 279.107C133.589 279.024 133.404 278.983 133.2 278.983C132.909 278.983 132.66 279.076 132.455 279.262C132.249 279.448 132.132 279.706 132.102 280.037H134.299ZM137.352 278.488C137.775 278.488 138.118 278.616 138.381 278.872C138.643 279.127 138.774 279.497 138.774 279.98V282.03H138.202V280.062C138.202 279.715 138.116 279.449 137.942 279.265C137.769 279.081 137.532 278.989 137.231 278.989C136.927 278.989 136.685 279.084 136.504 279.275C136.325 279.465 136.235 279.742 136.235 280.106V282.03H135.657V278.551H136.235V279.046C136.349 278.869 136.504 278.731 136.701 278.633C136.898 278.536 137.115 278.488 137.352 278.488ZM140.951 282.087C140.685 282.087 140.446 282.041 140.234 281.95C140.022 281.859 139.855 281.732 139.733 281.57C139.61 281.407 139.542 281.219 139.529 281.008H140.126C140.143 281.181 140.225 281.323 140.37 281.433C140.517 281.543 140.708 281.598 140.945 281.598C141.165 281.598 141.339 281.549 141.465 281.452C141.592 281.355 141.656 281.232 141.656 281.084C141.656 280.932 141.588 280.818 141.453 280.744C141.317 280.67 141.108 280.597 140.824 280.525C140.566 280.458 140.356 280.389 140.193 280.319C140.03 280.249 139.89 280.146 139.774 280.008C139.657 279.87 139.599 279.689 139.599 279.465C139.599 279.287 139.652 279.125 139.758 278.976C139.864 278.828 140.014 278.711 140.209 278.624C140.403 278.537 140.626 278.494 140.875 278.494C141.26 278.494 141.571 278.591 141.808 278.786C142.045 278.98 142.172 279.247 142.189 279.586H141.611C141.599 279.404 141.526 279.258 141.392 279.148C141.259 279.037 141.08 278.983 140.856 278.983C140.649 278.983 140.484 279.027 140.361 279.116C140.238 279.205 140.177 279.321 140.177 279.465C140.177 279.579 140.214 279.674 140.288 279.748C140.362 279.822 140.455 279.881 140.567 279.925C140.679 279.97 140.835 280.019 141.034 280.075C141.284 280.142 141.487 280.209 141.643 280.275C141.8 280.34 141.934 280.439 142.046 280.57C142.159 280.701 142.217 280.872 142.221 281.084C142.221 281.274 142.168 281.446 142.062 281.598C141.956 281.75 141.807 281.87 141.615 281.957C141.422 282.044 141.201 282.087 140.951 282.087ZM143.332 277.986C143.222 277.986 143.129 277.948 143.052 277.872C142.976 277.796 142.938 277.702 142.938 277.592C142.938 277.482 142.976 277.39 143.052 277.313C143.129 277.237 143.222 277.199 143.332 277.199C143.438 277.199 143.528 277.237 143.602 277.313C143.676 277.39 143.713 277.482 143.713 277.592C143.713 277.702 143.676 277.796 143.602 277.872C143.528 277.948 143.438 277.986 143.332 277.986ZM143.611 278.551V282.03H143.033V278.551H143.611ZM146.29 278.488C146.713 278.488 147.056 278.616 147.318 278.872C147.581 279.127 147.712 279.497 147.712 279.98V282.03H147.14V280.062C147.14 279.715 147.054 279.449 146.88 279.265C146.707 279.081 146.47 278.989 146.169 278.989C145.865 278.989 145.623 279.084 145.443 279.275C145.263 279.465 145.173 279.742 145.173 280.106V282.03H144.595V278.551H145.173V279.046C145.287 278.869 145.443 278.731 145.639 278.633C145.836 278.536 146.053 278.488 146.29 278.488ZM148.442 280.278C148.442 279.922 148.514 279.61 148.658 279.341C148.802 279.073 149 278.864 149.252 278.716C149.503 278.568 149.783 278.494 150.093 278.494C150.397 278.494 150.662 278.559 150.886 278.691C151.11 278.822 151.277 278.987 151.387 279.186V278.551H151.971V282.03H151.387V281.382C151.273 281.585 151.103 281.754 150.876 281.887C150.65 282.02 150.387 282.087 150.086 282.087C149.777 282.087 149.498 282.011 149.248 281.859C148.998 281.706 148.802 281.492 148.658 281.217C148.514 280.942 148.442 280.629 148.442 280.278ZM151.387 280.285C151.387 280.022 151.335 279.793 151.229 279.599C151.123 279.404 150.98 279.255 150.8 279.151C150.62 279.048 150.423 278.996 150.207 278.996C149.991 278.996 149.794 279.047 149.616 279.148C149.439 279.25 149.297 279.398 149.191 279.593C149.085 279.787 149.032 280.016 149.032 280.278C149.032 280.545 149.085 280.777 149.191 280.973C149.297 281.17 149.439 281.32 149.616 281.424C149.794 281.528 149.991 281.58 150.207 281.58C150.423 281.58 150.62 281.528 150.8 281.424C150.98 281.32 151.123 281.17 151.229 280.973C151.335 280.777 151.387 280.547 151.387 280.285Z" fill="#04A65B"/>
<path d="M175.846 264.347V265.826H177.459V266.302H175.846V267.825H177.649V268.302H175.269V263.87H177.649V264.347H175.846ZM180.22 264.759C180.643 264.759 180.986 264.887 181.248 265.143C181.511 265.399 181.642 265.769 181.642 266.251V268.302H181.071V266.334C181.071 265.986 180.984 265.721 180.81 265.537C180.637 265.353 180.4 265.261 180.099 265.261C179.795 265.261 179.552 265.356 179.373 265.547C179.193 265.737 179.103 266.014 179.103 266.378V268.302H178.525V264.823H179.103V265.318C179.217 265.14 179.373 265.003 179.569 264.905C179.766 264.808 179.983 264.759 180.22 264.759ZM183.819 268.359C183.553 268.359 183.314 268.313 183.102 268.222C182.891 268.131 182.723 268.004 182.601 267.841C182.478 267.678 182.41 267.491 182.397 267.28H182.994C183.011 267.453 183.092 267.595 183.239 267.705C183.385 267.815 183.576 267.87 183.813 267.87C184.033 267.87 184.207 267.821 184.334 267.724C184.461 267.626 184.524 267.504 184.524 267.356C184.524 267.203 184.456 267.09 184.321 267.016C184.185 266.942 183.976 266.869 183.693 266.797C183.434 266.73 183.224 266.661 183.061 266.591C182.898 266.521 182.758 266.417 182.642 266.28C182.525 266.142 182.467 265.961 182.467 265.737C182.467 265.559 182.52 265.396 182.626 265.248C182.732 265.1 182.882 264.982 183.077 264.896C183.271 264.809 183.494 264.766 183.743 264.766C184.128 264.766 184.439 264.863 184.676 265.058C184.913 265.252 185.04 265.519 185.057 265.857H184.479C184.467 265.676 184.394 265.53 184.261 265.42C184.127 265.309 183.948 265.255 183.724 265.255C183.517 265.255 183.352 265.299 183.229 265.388C183.106 265.477 183.045 265.593 183.045 265.737C183.045 265.851 183.082 265.945 183.156 266.019C183.23 266.094 183.323 266.153 183.435 266.197C183.547 266.242 183.703 266.291 183.902 266.346C184.152 266.414 184.355 266.481 184.511 266.546C184.668 266.612 184.802 266.71 184.914 266.841C185.027 266.973 185.085 267.144 185.089 267.356C185.089 267.546 185.036 267.718 184.93 267.87C184.825 268.022 184.675 268.142 184.483 268.229C184.29 268.315 184.069 268.359 183.819 268.359ZM186.2 264.258C186.09 264.258 185.997 264.22 185.921 264.144C185.844 264.067 185.806 263.974 185.806 263.864C185.806 263.754 185.844 263.661 185.921 263.585C185.997 263.509 186.09 263.471 186.2 263.471C186.306 263.471 186.396 263.509 186.47 263.585C186.544 263.661 186.581 263.754 186.581 263.864C186.581 263.974 186.544 264.067 186.47 264.144C186.396 264.22 186.306 264.258 186.2 264.258ZM186.479 264.823V268.302H185.902V264.823H186.479ZM189.158 264.759C189.581 264.759 189.924 264.887 190.187 265.143C190.449 265.399 190.58 265.769 190.58 266.251V268.302H190.009V266.334C190.009 265.986 189.922 265.721 189.748 265.537C189.575 265.353 189.338 265.261 189.038 265.261C188.733 265.261 188.491 265.356 188.31 265.547C188.13 265.737 188.041 266.014 188.041 266.378V268.302H187.463V264.823H188.041V265.318C188.155 265.14 188.31 265.003 188.507 264.905C188.704 264.808 188.921 264.759 189.158 264.759ZM191.31 266.55C191.31 266.194 191.382 265.882 191.526 265.613C191.67 265.344 191.868 265.136 192.119 264.988C192.371 264.84 192.651 264.766 192.961 264.766C193.265 264.766 193.53 264.831 193.754 264.962C193.979 265.094 194.146 265.259 194.255 265.458V264.823H194.839V268.302H194.255V267.654C194.141 267.857 193.971 268.026 193.744 268.159C193.518 268.292 193.255 268.359 192.954 268.359C192.645 268.359 192.366 268.283 192.116 268.13C191.867 267.978 191.67 267.764 191.526 267.489C191.382 267.214 191.31 266.901 191.31 266.55ZM194.255 266.556C194.255 266.294 194.203 266.065 194.097 265.871C193.991 265.676 193.848 265.527 193.668 265.423C193.488 265.319 193.291 265.268 193.075 265.268C192.859 265.268 192.663 265.319 192.485 265.42C192.306 265.522 192.165 265.67 192.059 265.865C191.953 266.059 191.901 266.288 191.901 266.55C191.901 266.817 191.953 267.048 192.059 267.245C192.165 267.442 192.306 267.592 192.485 267.696C192.663 267.8 192.859 267.852 193.075 267.852C193.291 267.852 193.488 267.8 193.668 267.696C193.848 267.592 193.991 267.442 194.097 267.245C194.203 267.048 194.255 266.819 194.255 266.556ZM197.512 264.76C197.935 264.76 198.278 264.888 198.54 265.144C198.803 265.4 198.934 265.77 198.934 266.252V268.302H198.362V266.334C198.362 265.987 198.276 265.722 198.102 265.538C197.929 265.354 197.692 265.262 197.391 265.262C197.087 265.262 196.845 265.356 196.664 265.547C196.484 265.738 196.394 266.015 196.394 266.379V268.302H195.817V264.824H196.394V265.319C196.509 265.141 196.664 265.003 196.861 264.906C197.058 264.808 197.275 264.76 197.512 264.76ZM199.664 266.55C199.664 266.194 199.736 265.883 199.879 265.614C200.024 265.345 200.222 265.137 200.473 264.988C200.725 264.841 201.008 264.766 201.321 264.766C201.592 264.766 201.843 264.829 202.076 264.954C202.309 265.078 202.487 265.242 202.609 265.446V263.605H203.193V268.302H202.609V267.648C202.495 267.856 202.326 268.026 202.101 268.159C201.877 268.293 201.615 268.359 201.315 268.359C201.005 268.359 200.725 268.283 200.473 268.131C200.222 267.979 200.024 267.765 199.879 267.49C199.736 267.215 199.664 266.901 199.664 266.55ZM202.609 266.557C202.609 266.294 202.557 266.066 202.451 265.871C202.345 265.677 202.202 265.528 202.022 265.424C201.842 265.32 201.644 265.269 201.429 265.269C201.213 265.269 201.016 265.319 200.838 265.421C200.66 265.522 200.519 265.671 200.413 265.865C200.307 266.06 200.254 266.288 200.254 266.551C200.254 266.818 200.307 267.049 200.413 267.246C200.519 267.443 200.66 267.593 200.838 267.697C201.016 267.8 201.213 267.852 201.429 267.852C201.644 267.852 201.842 267.8 202.022 267.697C202.202 267.593 202.345 267.443 202.451 267.246C202.557 267.049 202.609 266.819 202.609 266.557ZM205.688 268.36C205.362 268.36 205.067 268.286 204.803 268.138C204.538 267.99 204.331 267.779 204.18 267.506C204.03 267.233 203.955 266.917 203.955 266.557C203.955 266.202 204.032 265.887 204.187 265.615C204.341 265.342 204.552 265.132 204.818 264.986C205.085 264.84 205.384 264.767 205.713 264.767C206.043 264.767 206.342 264.84 206.609 264.986C206.875 265.132 207.086 265.341 207.24 265.611C207.395 265.882 207.472 266.197 207.472 266.557C207.472 266.917 207.392 267.233 207.234 267.506C207.075 267.779 206.86 267.99 206.59 268.138C206.318 268.286 206.018 268.36 205.688 268.36ZM205.688 267.852C205.895 267.852 206.09 267.803 206.272 267.706C206.454 267.609 206.601 267.463 206.713 267.268C206.825 267.073 206.881 266.836 206.881 266.557C206.881 266.278 206.827 266.041 206.716 265.846C206.606 265.652 206.463 265.507 206.285 265.412C206.107 265.316 205.914 265.269 205.707 265.269C205.495 265.269 205.302 265.316 205.126 265.412C204.951 265.507 204.81 265.652 204.704 265.846C204.598 266.041 204.546 266.278 204.546 266.557C204.546 266.84 204.597 267.08 204.701 267.275C204.805 267.469 204.943 267.614 205.117 267.709C205.29 267.805 205.481 267.852 205.688 267.852ZM179.773 275.528C179.447 275.528 179.152 275.453 178.887 275.306C178.623 275.157 178.416 274.947 178.265 274.674C178.115 274.401 178.04 274.085 178.04 273.725C178.04 273.369 178.117 273.055 178.272 272.782C178.426 272.509 178.637 272.3 178.903 272.154C179.17 272.008 179.468 271.935 179.798 271.935C180.128 271.935 180.427 272.008 180.693 272.154C180.96 272.3 181.17 272.508 181.325 272.779C181.479 273.05 181.557 273.365 181.557 273.725C181.557 274.085 181.477 274.401 181.319 274.674C181.16 274.947 180.945 275.157 180.674 275.306C180.403 275.453 180.103 275.528 179.773 275.528ZM179.773 275.02C179.98 275.02 180.175 274.971 180.357 274.874C180.539 274.776 180.686 274.631 180.798 274.436C180.91 274.241 180.966 274.004 180.966 273.725C180.966 273.446 180.911 273.209 180.801 273.014C180.691 272.819 180.547 272.674 180.37 272.579C180.192 272.484 179.999 272.437 179.792 272.437C179.58 272.437 179.387 272.484 179.211 272.579C179.035 272.674 178.894 272.819 178.789 273.014C178.683 273.209 178.63 273.446 178.63 273.725C178.63 274.008 178.682 274.247 178.786 274.442C178.889 274.637 179.028 274.782 179.201 274.877C179.375 274.972 179.565 275.02 179.773 275.02ZM183.798 273.719C183.798 273.363 183.869 273.051 184.013 272.782C184.157 272.514 184.355 272.305 184.607 272.157C184.859 272.009 185.141 271.935 185.454 271.935C185.755 271.935 186.018 272.002 186.245 272.135C186.471 272.268 186.637 272.432 186.743 272.627V271.992H187.327V277.121H186.743V274.829C186.633 275.024 186.463 275.189 186.235 275.325C186.006 275.46 185.739 275.528 185.435 275.528C185.131 275.528 184.853 275.451 184.603 275.299C184.354 275.147 184.157 274.933 184.013 274.658C183.869 274.383 183.798 274.07 183.798 273.719ZM186.743 273.725C186.743 273.462 186.69 273.234 186.584 273.04C186.478 272.845 186.336 272.696 186.156 272.592C185.976 272.488 185.778 272.437 185.562 272.437C185.346 272.437 185.15 272.487 184.972 272.589C184.794 272.69 184.652 272.839 184.546 273.033C184.441 273.228 184.388 273.457 184.388 273.719C184.388 273.985 184.441 274.217 184.546 274.414C184.652 274.611 184.794 274.761 184.972 274.865C185.15 274.968 185.346 275.02 185.562 275.02C185.778 275.02 185.976 274.968 186.156 274.865C186.336 274.761 186.478 274.611 186.584 274.414C186.69 274.217 186.743 273.988 186.743 273.725ZM191.39 271.992V275.471H190.812V274.957C190.702 275.135 190.549 275.273 190.351 275.372C190.155 275.472 189.938 275.522 189.701 275.522C189.43 275.522 189.187 275.466 188.971 275.353C188.755 275.241 188.585 275.073 188.46 274.848C188.335 274.624 188.273 274.352 188.273 274.03V271.992H188.844V273.954C188.844 274.297 188.931 274.56 189.104 274.744C189.278 274.928 189.515 275.02 189.815 275.02C190.124 275.02 190.367 274.925 190.545 274.734C190.723 274.544 190.812 274.267 190.812 273.903V271.992H191.39ZM195.541 273.598C195.541 273.708 195.534 273.825 195.522 273.947H192.742C192.763 274.29 192.88 274.558 193.094 274.751C193.308 274.943 193.567 275.039 193.872 275.039C194.121 275.039 194.33 274.981 194.497 274.865C194.664 274.748 194.781 274.593 194.849 274.398H195.471C195.378 274.733 195.192 275.004 194.912 275.214C194.633 275.423 194.286 275.528 193.872 275.528C193.542 275.528 193.246 275.454 192.986 275.306C192.726 275.158 192.521 274.947 192.373 274.674C192.225 274.401 192.151 274.085 192.151 273.725C192.151 273.365 192.223 273.05 192.367 272.779C192.511 272.509 192.713 272.3 192.973 272.154C193.234 272.008 193.533 271.935 193.872 271.935C194.201 271.935 194.494 272.007 194.748 272.151C195.001 272.295 195.197 272.492 195.335 272.745C195.472 272.996 195.541 273.281 195.541 273.598ZM194.944 273.478C194.944 273.257 194.896 273.068 194.798 272.91C194.701 272.751 194.569 272.63 194.401 272.548C194.234 272.465 194.049 272.424 193.846 272.424C193.554 272.424 193.305 272.517 193.1 272.703C192.895 272.889 192.777 273.148 192.748 273.478H194.944ZM199.229 275.528C198.962 275.528 198.723 275.482 198.512 275.391C198.3 275.301 198.133 275.174 198.01 275.011C197.887 274.848 197.82 274.661 197.807 274.449H198.404C198.421 274.623 198.502 274.764 198.648 274.874C198.794 274.984 198.986 275.039 199.223 275.039C199.443 275.039 199.616 274.99 199.743 274.893C199.87 274.796 199.934 274.673 199.934 274.525C199.934 274.373 199.866 274.26 199.731 274.185C199.595 274.112 199.385 274.038 199.102 273.966C198.844 273.899 198.633 273.83 198.471 273.76C198.308 273.691 198.168 273.587 198.052 273.449C197.935 273.311 197.877 273.13 197.877 272.906C197.877 272.729 197.93 272.566 198.035 272.417C198.142 272.269 198.292 272.152 198.486 272.065C198.681 271.979 198.903 271.935 199.153 271.935C199.538 271.935 199.849 272.032 200.086 272.227C200.323 272.422 200.45 272.689 200.467 273.027H199.889C199.877 272.845 199.803 272.699 199.67 272.589C199.537 272.479 199.358 272.424 199.134 272.424C198.927 272.424 198.761 272.468 198.639 272.557C198.516 272.646 198.455 272.762 198.455 272.906C198.455 273.021 198.492 273.115 198.565 273.189C198.64 273.263 198.733 273.322 198.845 273.367C198.957 273.411 199.113 273.461 199.311 273.516C199.561 273.584 199.765 273.65 199.921 273.716C200.078 273.781 200.212 273.88 200.324 274.011C200.436 274.142 200.494 274.313 200.499 274.525C200.499 274.715 200.446 274.887 200.34 275.039C200.234 275.192 200.085 275.311 199.892 275.398C199.7 275.485 199.479 275.528 199.229 275.528ZM204.485 273.598C204.485 273.708 204.479 273.825 204.466 273.947H201.686C201.707 274.29 201.824 274.558 202.038 274.751C202.252 274.943 202.511 275.039 202.816 275.039C203.065 275.039 203.274 274.981 203.441 274.865C203.608 274.748 203.726 274.593 203.793 274.398H204.416C204.322 274.733 204.136 275.004 203.857 275.214C203.577 275.423 203.23 275.528 202.816 275.528C202.486 275.528 202.19 275.454 201.93 275.306C201.67 275.158 201.466 274.947 201.318 274.674C201.169 274.401 201.096 274.085 201.096 273.725C201.096 273.365 201.168 273.05 201.311 272.779C201.455 272.509 201.657 272.3 201.917 272.154C202.178 272.008 202.477 271.935 202.816 271.935C203.146 271.935 203.438 272.007 203.692 272.151C203.945 272.295 204.142 272.492 204.279 272.745C204.416 272.996 204.485 273.281 204.485 273.598ZM203.888 273.478C203.888 273.257 203.84 273.068 203.743 272.91C203.645 272.751 203.513 272.63 203.346 272.548C203.179 272.465 202.993 272.424 202.791 272.424C202.498 272.424 202.25 272.517 202.044 272.703C201.839 272.889 201.722 273.148 201.692 273.478H203.888ZM177.948 280.887C177.948 280.531 178.019 280.219 178.163 279.951C178.307 279.681 178.505 279.473 178.757 279.325C179.009 279.177 179.289 279.103 179.598 279.103C179.903 279.103 180.167 279.168 180.391 279.3C180.616 279.431 180.783 279.596 180.893 279.795V279.16H181.477V282.638H180.893V281.991C180.779 282.194 180.608 282.363 180.382 282.496C180.156 282.629 179.892 282.696 179.592 282.696C179.283 282.696 179.004 282.62 178.754 282.467C178.504 282.315 178.307 282.101 178.163 281.826C178.019 281.551 177.948 281.238 177.948 280.887ZM180.893 280.893C180.893 280.63 180.84 280.402 180.734 280.208C180.629 280.013 180.486 279.864 180.306 279.76C180.126 279.656 179.928 279.604 179.712 279.604C179.497 279.604 179.3 279.655 179.122 279.757C178.944 279.858 178.802 280.007 178.697 280.201C178.591 280.396 178.538 280.624 178.538 280.887C178.538 281.153 178.591 281.385 178.697 281.582C178.802 281.778 178.944 281.929 179.122 282.032C179.3 282.136 179.497 282.188 179.712 282.188C179.928 282.188 180.126 282.136 180.306 282.032C180.486 281.929 180.629 281.778 180.734 281.582C180.84 281.385 180.893 281.155 180.893 280.893ZM183.032 279.801C183.147 279.602 183.317 279.436 183.543 279.303C183.77 279.17 184.033 279.103 184.334 279.103C184.643 279.103 184.923 279.177 185.175 279.325C185.427 279.473 185.624 279.682 185.768 279.951C185.912 280.219 185.984 280.531 185.984 280.887C185.984 281.238 185.912 281.551 185.768 281.826C185.624 282.101 185.427 282.315 185.175 282.467C184.923 282.62 184.643 282.696 184.334 282.696C184.037 282.696 183.776 282.629 183.55 282.496C183.323 282.363 183.151 282.197 183.032 281.998V284.289H182.454V279.16H183.032V279.801ZM185.394 280.887C185.394 280.624 185.341 280.396 185.235 280.201C185.129 280.007 184.987 279.858 184.807 279.757C184.627 279.655 184.429 279.604 184.213 279.604C184.001 279.604 183.806 279.656 183.626 279.76C183.446 279.864 183.302 280.014 183.194 280.211C183.086 280.407 183.032 280.635 183.032 280.893C183.032 281.155 183.086 281.385 183.194 281.582C183.302 281.778 183.446 281.929 183.626 282.032C183.806 282.136 184.001 282.188 184.213 282.188C184.429 282.188 184.627 282.136 184.807 282.032C184.987 281.929 185.129 281.778 185.235 281.582C185.341 281.385 185.394 281.153 185.394 280.887ZM187.323 279.725C187.425 279.526 187.57 279.372 187.758 279.262C187.946 279.152 188.176 279.097 188.447 279.097V279.693H188.295C187.647 279.693 187.323 280.045 187.323 280.747V282.639H186.746V279.16H187.323V279.725ZM192.288 280.766C192.288 280.876 192.281 280.993 192.269 281.115H189.488C189.509 281.458 189.627 281.726 189.84 281.918C190.054 282.111 190.313 282.207 190.618 282.207C190.868 282.207 191.076 282.149 191.244 282.032C191.411 281.916 191.528 281.761 191.595 281.566H192.218C192.125 281.9 191.939 282.172 191.659 282.382C191.38 282.591 191.033 282.696 190.618 282.696C190.288 282.696 189.993 282.622 189.733 282.474C189.472 282.326 189.268 282.115 189.12 281.842C188.972 281.569 188.898 281.253 188.898 280.893C188.898 280.533 188.97 280.218 189.113 279.947C189.257 279.677 189.459 279.468 189.72 279.322C189.98 279.176 190.279 279.103 190.618 279.103C190.948 279.103 191.24 279.175 191.494 279.319C191.748 279.463 191.944 279.66 192.082 279.913C192.219 280.164 192.288 280.449 192.288 280.766ZM191.691 280.646C191.691 280.425 191.642 280.236 191.545 280.078C191.448 279.918 191.315 279.798 191.148 279.716C190.981 279.633 190.796 279.592 190.593 279.592C190.301 279.592 190.052 279.685 189.847 279.871C189.641 280.057 189.524 280.315 189.495 280.646H191.691ZM194.744 279.097C195.168 279.097 195.51 279.225 195.773 279.48C196.035 279.736 196.166 280.106 196.166 280.589V282.639H195.595V280.671C195.595 280.324 195.508 280.058 195.335 279.874C195.161 279.69 194.924 279.598 194.624 279.598C194.319 279.598 194.077 279.693 193.897 279.884C193.717 280.074 193.627 280.351 193.627 280.715V282.639H193.049V279.16H193.627V279.655C193.742 279.477 193.897 279.34 194.093 279.243C194.29 279.145 194.507 279.097 194.744 279.097ZM196.896 280.887C196.896 280.531 196.968 280.219 197.112 279.951C197.256 279.682 197.454 279.473 197.705 279.325C197.957 279.177 198.24 279.103 198.553 279.103C198.824 279.103 199.076 279.166 199.308 279.29C199.541 279.415 199.719 279.579 199.842 279.782V277.941H200.426V282.639H199.842V281.985C199.727 282.192 199.558 282.363 199.334 282.496C199.11 282.629 198.847 282.696 198.547 282.696C198.238 282.696 197.957 282.62 197.705 282.467C197.454 282.315 197.256 282.101 197.112 281.826C196.968 281.551 196.896 281.238 196.896 280.887ZM199.842 280.893C199.842 280.631 199.789 280.402 199.683 280.208C199.577 280.013 199.434 279.864 199.254 279.76C199.074 279.656 198.877 279.604 198.661 279.604C198.445 279.604 198.249 279.655 198.071 279.757C197.893 279.859 197.751 280.007 197.645 280.201C197.54 280.396 197.487 280.624 197.487 280.887C197.487 281.153 197.54 281.385 197.645 281.582C197.751 281.779 197.893 281.929 198.071 282.032C198.249 282.136 198.445 282.188 198.661 282.188C198.877 282.188 199.074 282.136 199.254 282.032C199.434 281.929 199.577 281.779 199.683 281.582C199.789 281.385 199.842 281.155 199.842 280.893ZM204.577 280.766C204.577 280.876 204.57 280.993 204.558 281.115H201.778C201.799 281.458 201.916 281.726 202.13 281.918C202.344 282.111 202.603 282.207 202.908 282.207C203.157 282.207 203.366 282.149 203.533 282.032C203.7 281.916 203.818 281.761 203.885 281.566H204.507C204.414 281.901 204.228 282.172 203.949 282.382C203.669 282.591 203.322 282.696 202.908 282.696C202.578 282.696 202.282 282.622 202.022 282.474C201.762 282.326 201.558 282.115 201.41 281.842C201.261 281.569 201.188 281.253 201.188 280.893C201.188 280.534 201.259 280.218 201.403 279.947C201.547 279.677 201.749 279.468 202.009 279.322C202.27 279.176 202.569 279.103 202.908 279.103C203.238 279.103 203.53 279.175 203.784 279.319C204.037 279.463 204.233 279.661 204.371 279.913C204.508 280.164 204.577 280.449 204.577 280.766ZM203.98 280.646C203.98 280.425 203.932 280.236 203.834 280.078C203.737 279.919 203.605 279.798 203.438 279.716C203.271 279.633 203.085 279.592 202.882 279.592C202.59 279.592 202.342 279.685 202.136 279.871C201.931 280.057 201.813 280.315 201.784 280.646H203.98Z" fill="#04A65B"/>
<path d="M129.857 321.499C129.536 321.948 129.131 322.293 128.638 322.535C128.146 322.776 127.588 322.855 126.964 322.773C126.34 322.691 125.683 322.404 124.994 321.913L123.588 320.911L121.293 324.133L119.609 322.933L125.588 314.543L128.677 316.744C129.326 317.207 129.799 317.713 130.096 318.263C130.393 318.813 130.516 319.366 130.464 319.921C130.413 320.476 130.21 321.002 129.857 321.499ZM125.89 320.504C126.355 320.835 126.775 320.974 127.151 320.922C127.527 320.869 127.851 320.651 128.126 320.266C128.708 319.448 128.542 318.714 127.629 318.063L126.294 317.113L124.555 319.553L125.89 320.504ZM134.81 322.516L133.548 324.769L136.574 326.464L135.773 327.894L132.747 326.199L131.413 328.581L134.825 330.492L134.003 331.96L128.788 329.039L133.83 320.038L139.044 322.96L138.223 324.427L134.81 322.516ZM142.474 335.565L141.929 330.983L141.031 330.607L139.479 334.309L137.573 333.511L141.556 324.009L145.122 325.505C145.857 325.813 146.429 326.204 146.838 326.68C147.247 327.156 147.489 327.667 147.563 328.216C147.637 328.764 147.56 329.311 147.332 329.856C147.069 330.482 146.651 330.971 146.076 331.322C145.502 331.674 144.817 331.794 144.02 331.684L144.678 336.489L142.474 335.565ZM141.63 329.178L143.223 329.845C143.74 330.062 144.178 330.099 144.537 329.956C144.895 329.813 145.168 329.52 145.355 329.074C145.537 328.639 145.551 328.248 145.398 327.9C145.245 327.554 144.91 327.272 144.393 327.055L142.8 326.387L141.63 329.178ZM152.297 329.485L151.74 332.007L155.127 332.756L154.772 334.356L151.385 333.607L150.796 336.273L154.615 337.118L154.251 338.761L148.415 337.47L150.643 327.396L156.48 328.687L156.117 330.33L152.297 329.485ZM161.078 329.348L160.112 339.605L158.055 339.411L159.021 329.154L161.078 329.348ZM169.537 340.003L167.139 336.062L166.165 336.093L166.291 340.105L164.226 340.17L163.903 329.873L167.768 329.751C168.565 329.726 169.248 329.845 169.817 330.108C170.386 330.371 170.819 330.736 171.114 331.205C171.409 331.672 171.566 332.202 171.585 332.792C171.606 333.47 171.428 334.089 171.052 334.647C170.676 335.206 170.103 335.6 169.332 335.831L171.926 339.928L169.537 340.003ZM166.117 334.543L167.843 334.489C168.404 334.472 168.817 334.323 169.084 334.044C169.351 333.765 169.477 333.385 169.462 332.902C169.447 332.431 169.298 332.069 169.014 331.816C168.731 331.565 168.309 331.447 167.748 331.465L166.022 331.519L166.117 334.543ZM180.478 338.959C179.526 339.109 178.616 339.022 177.749 338.701C176.881 338.379 176.152 337.86 175.561 337.14C174.969 336.422 174.594 335.562 174.437 334.561C174.28 333.57 174.374 332.641 174.715 331.775C175.057 330.91 175.591 330.19 176.318 329.618C177.045 329.045 177.884 328.684 178.837 328.534C179.799 328.382 180.712 328.468 181.574 328.79C182.437 329.113 183.161 329.633 183.748 330.353C184.334 331.072 184.705 331.928 184.862 332.919C185.019 333.92 184.93 334.853 184.592 335.718C184.256 336.583 183.723 337.302 182.997 337.874C182.27 338.447 181.431 338.809 180.478 338.959ZM180.191 337.136C180.804 337.039 181.322 336.816 181.744 336.466C182.167 336.115 182.469 335.662 182.651 335.105C182.832 334.548 182.869 333.93 182.762 333.25C182.655 332.569 182.429 331.995 182.087 331.526C181.744 331.057 181.318 330.723 180.809 330.524C180.299 330.325 179.738 330.274 179.126 330.371C178.513 330.467 177.993 330.689 177.565 331.035C177.136 331.382 176.831 331.83 176.649 332.382C176.466 332.934 176.429 333.55 176.536 334.23C176.643 334.911 176.869 335.488 177.212 335.961C177.556 336.435 177.985 336.774 178.501 336.977C179.015 337.179 179.579 337.232 180.191 337.136ZM193.088 329.033L193.666 330.675L187.763 332.753L187.185 331.11L193.088 329.033ZM196.239 329.096C195.744 328.211 195.499 327.308 195.507 326.384C195.515 325.461 195.754 324.611 196.226 323.833C196.698 323.056 197.364 322.426 198.222 321.945C199.227 321.383 200.251 321.147 201.295 321.239C202.339 321.33 203.266 321.747 204.076 322.489L202.003 323.651C201.557 323.337 201.086 323.177 200.593 323.172C200.099 323.167 199.607 323.3 199.118 323.574C198.594 323.868 198.198 324.251 197.927 324.724C197.656 325.197 197.532 325.721 197.555 326.295C197.577 326.869 197.757 327.456 198.093 328.057C198.425 328.65 198.831 329.107 199.311 329.43C199.791 329.754 200.303 329.923 200.848 329.94C201.393 329.956 201.927 329.817 202.451 329.524C202.94 329.25 203.31 328.899 203.561 328.471C203.812 328.043 203.92 327.556 203.885 327.012L205.959 325.85C206.173 326.937 206.047 327.947 205.582 328.878C205.117 329.81 204.378 330.559 203.365 331.126C202.507 331.607 201.623 331.846 200.713 331.842C199.803 331.838 198.953 331.601 198.165 331.13C197.376 330.658 196.734 329.98 196.239 329.096ZM207.443 318.391L208.942 320.494L211.767 318.482L212.717 319.816L209.892 321.829L211.476 324.053L214.662 321.783L215.639 323.153L210.77 326.622L204.784 318.22L209.653 314.751L210.629 316.121L207.443 318.391Z" fill="#0C1620"/>
<path fill-rule="evenodd" clip-rule="evenodd" d="M187.767 164.631C173.927 176.021 156.543 174.499 144.968 164.142C149.538 171.467 152.621 180.03 153.731 189.288H154.211H154.295H178.537H178.697H180.549C181.79 178.952 185.488 169.483 190.969 161.634C189.946 162.716 188.875 163.719 187.767 164.631Z" fill="#F8FCFE"/>
<path fill-rule="evenodd" clip-rule="evenodd" d="M167.191 110.227C183.576 110.227 196.858 123.51 196.858 139.894C196.858 156.279 183.576 169.562 167.191 169.562C150.806 169.562 137.523 156.279 137.523 139.894C137.523 123.51 150.806 110.227 167.191 110.227Z" fill="#F8FCFE"/>
<mask id="mask6_160_4" style="mask-type:luminance" maskUnits="userSpaceOnUse" x="134" y="122" width="66" height="51">
<path d="M182.412 122.745C190.038 122.745 198.785 129.304 199.719 137.93C200.523 144.635 198.421 151.681 194.614 157.51C192.419 160.871 189.645 163.815 186.565 166.089C165.075 181.962 134.492 168.091 134.492 140.004C134.492 130.611 142.181 122.745 151.853 122.745C158.486 122.745 164.243 126.486 167.133 131.973C170.022 126.486 174.787 122.745 182.412 122.745ZM165.06 151.113C165.322 152.927 166.057 154.659 167.191 156.263C168.3 154.693 169.028 153.001 169.304 151.228C172.469 154.922 177.167 157.262 182.412 157.262C184.849 157.262 187.168 156.756 189.27 155.845C188.858 157.033 185.664 160.058 184.505 161.1C175.273 169.398 158.993 169.398 149.761 161.1C148.602 160.059 145.408 157.033 144.995 155.845C147.098 156.756 149.416 157.262 151.853 157.262C157.153 157.262 161.895 154.873 165.06 151.113ZM151.639 128.152C158.224 128.152 163.562 133.491 163.562 140.076C163.562 146.661 158.224 151.999 151.639 151.999C145.053 151.999 139.715 146.661 139.715 140.076C139.715 133.491 145.053 128.152 151.639 128.152ZM182.613 128.152C189.198 128.152 194.536 133.491 194.536 140.076C194.536 146.661 189.198 151.999 182.613 151.999C176.027 151.999 170.689 146.661 170.689 140.076C170.689 133.491 176.027 128.152 182.613 128.152Z" fill="white"/>
</mask>
<g mask="url(#mask6_160_4)">
<path fill-rule="evenodd" clip-rule="evenodd" d="M182.412 122.745C190.038 122.745 198.785 129.304 199.719 137.93C200.523 144.635 198.421 151.681 194.614 157.51C192.419 160.871 189.645 163.815 186.565 166.089C165.075 181.962 134.492 168.091 134.492 140.004C134.492 130.611 142.181 122.745 151.853 122.745C158.486 122.745 164.243 126.486 167.133 131.973C170.022 126.486 174.787 122.745 182.412 122.745ZM165.06 151.113C165.322 152.927 166.057 154.659 167.191 156.263C168.3 154.693 169.028 153.001 169.304 151.228C172.469 154.922 177.167 157.262 182.412 157.262C184.849 157.262 187.168 156.756 189.27 155.845C188.858 157.033 185.664 160.058 184.505 161.1C175.273 169.398 158.993 169.398 149.761 161.1C148.602 160.059 145.408 157.033 144.995 155.845C147.098 156.756 149.416 157.262 151.853 157.262C157.153 157.262 161.895 154.873 165.06 151.113ZM151.639 128.152C158.224 128.152 163.562 133.491 163.562 140.076C163.562 146.661 158.224 151.999 151.639 151.999C145.053 151.999 139.715 146.661 139.715 140.076C139.715 133.491 145.053 128.152 151.639 128.152ZM182.613 128.152C189.198 128.152 194.536 133.491 194.536 140.076C194.536 146.661 189.198 151.999 182.613 151.999C176.027 151.999 170.689 146.661 170.689 140.076C170.689 133.491 176.027 128.152 182.613 128.152Z" fill="url(#paint6_linear_160_4)"/>
</g>
<path fill-rule="evenodd" clip-rule="evenodd" d="M182.648 133.25C186.418 133.25 189.474 136.306 189.474 140.076C189.474 143.846 186.418 146.902 182.648 146.902C178.878 146.902 175.821 143.846 175.821 140.076C175.821 139.302 175.95 138.559 176.187 137.866C176.459 137.936 176.745 137.973 177.038 137.973C178.93 137.973 180.463 136.439 180.463 134.548C180.463 134.237 180.421 133.936 180.343 133.649C181.063 133.391 181.839 133.25 182.648 133.25Z" fill="#0C1620"/>
<path fill-rule="evenodd" clip-rule="evenodd" d="M151.674 133.25C155.444 133.25 158.5 136.306 158.5 140.076C158.5 143.846 155.444 146.902 151.674 146.902C147.904 146.902 144.847 143.846 144.847 140.076C144.847 139.302 144.976 138.559 145.213 137.866C145.485 137.936 145.771 137.973 146.064 137.973C147.956 137.973 149.489 136.439 149.489 134.548C149.489 134.237 149.447 133.936 149.369 133.649C150.089 133.391 150.865 133.25 151.674 133.25Z" fill="#0C1620"/>
<path fill-rule="evenodd" clip-rule="evenodd" d="M197.49 127.208V123.91V112.696V110.232V110.227H202.804V119.983C201.128 120.936 200.217 123.003 201.329 125.144C201.5 125.474 201.645 125.556 201.796 125.856C201.196 127.451 200.853 127.601 200.425 130.016C200.104 131.826 200.022 133.365 200.007 135.2C199.987 137.49 201.058 137.59 203.17 137.597C204.723 137.602 207.355 137.92 208.165 136.899C209.255 135.526 207.967 128.886 207.347 127.206C206.866 125.901 206.51 126.163 207.003 125.448C208.533 123.226 207.334 120.818 205.791 120.002V110.227C207.347 110.227 208.901 110.218 210.449 110.218C210.813 110.218 211.11 109.92 211.11 109.556V105.039C211.11 104.674 210.813 104.377 210.449 104.377C181.603 104.377 152.779 104.377 123.933 104.377C123.569 104.377 123.271 104.674 123.271 105.039V109.556C123.271 109.92 123.569 110.218 123.933 110.218C128.254 110.218 132.576 110.218 136.898 110.218V110.223V112.687V123.909V127.199V128.445V128.514L136.901 128.515C136.93 128.821 137.152 129.072 137.443 129.145V129.156L167.191 135.178L196.85 129.175C197.21 129.134 197.49 128.829 197.49 128.457V128.452L197.49 127.208Z" fill="#0C1620"/>
<mask id="mask7_160_4" style="mask-type:luminance" maskUnits="userSpaceOnUse" x="179" y="153" width="31" height="65">
<path d="M179.355 193.375C179.355 176.876 187.578 162.299 200.149 153.516C206.366 161.13 209.631 170.335 209.631 180.148C209.631 196.763 200.014 211.132 186.044 217.992C181.793 210.773 179.355 202.359 179.355 193.375Z" fill="white"/>
</mask>
<g mask="url(#mask7_160_4)">
<path fill-rule="evenodd" clip-rule="evenodd" d="M179.355 193.375C179.355 176.876 187.578 162.299 200.149 153.516C206.366 161.13 209.631 170.335 209.631 180.148C209.631 196.763 200.014 211.132 186.044 217.992C181.793 210.773 179.355 202.359 179.355 193.375Z" fill="url(#paint7_linear_160_4)"/>
</g>
<mask id="mask8_160_4" style="mask-type:luminance" maskUnits="userSpaceOnUse" x="179" y="153" width="31" height="65">
<path d="M179.355 193.375C179.355 176.876 187.578 162.299 200.149 153.516C206.366 161.13 209.631 170.335 209.631 180.148C209.631 196.763 200.014 211.132 186.044 217.992C181.793 210.773 179.355 202.359 179.355 193.375Z" fill="white"/>
</mask>
<g mask="url(#mask8_160_4)">
<path fill-rule="evenodd" clip-rule="evenodd" d="M197.122 173.587C197.122 148.643 209.555 126.603 228.562 113.325C237.961 124.836 242.896 138.754 242.896 153.589C242.896 178.71 228.357 200.434 207.236 210.807C200.808 199.892 197.122 187.17 197.122 173.587Z" fill="#4E3822" fill-opacity="0.15"/>
</g>
<mask id="mask9_160_4" style="mask-type:luminance" maskUnits="userSpaceOnUse" x="124" y="153" width="32" height="65">
<path d="M155.027 193.375C155.027 176.876 146.804 162.299 134.232 153.516C128.016 161.13 124.751 170.335 124.751 180.148C124.751 196.763 134.367 211.132 148.338 217.992C152.589 210.773 155.027 202.359 155.027 193.375Z" fill="white"/>
</mask>
<g mask="url(#mask9_160_4)">
<path fill-rule="evenodd" clip-rule="evenodd" d="M155.027 193.375C155.027 176.876 146.804 162.299 134.232 153.516C128.016 161.13 124.751 170.335 124.751 180.148C124.751 196.763 134.367 211.132 148.338 217.992C152.589 210.773 155.027 202.359 155.027 193.375Z" fill="url(#paint8_linear_160_4)"/>
</g>
<mask id="mask10_160_4" style="mask-type:luminance" maskUnits="userSpaceOnUse" x="124" y="153" width="32" height="65">
<path d="M155.027 193.375C155.027 176.876 146.804 162.299 134.232 153.516C128.016 161.13 124.751 170.335 124.751 180.148C124.751 196.763 134.367 211.132 148.338 217.992C152.589 210.773 155.027 202.359 155.027 193.375Z" fill="white"/>
</mask>
<g mask="url(#mask10_160_4)">
<path fill-rule="evenodd" clip-rule="evenodd" d="M137.26 173.587C137.26 148.643 124.827 126.603 105.82 113.325C96.4213 124.836 91.4854 138.754 91.4854 153.589C91.4854 178.71 106.024 200.434 127.146 210.807C133.573 199.892 137.26 187.17 137.26 173.587Z" fill="#4E3822" fill-opacity="0.15"/>
</g>
<path fill-rule="evenodd" clip-rule="evenodd" d="M190.461 187.665H178.859H178.697H154.329H154.244H142.254C141.365 187.665 140.599 187.969 140.017 188.555L129.489 199.142L116.495 212.209C115.54 213.17 115.523 214.564 116.454 215.542L164.113 265.6C164.694 266.21 165.477 266.531 166.388 266.532C167.298 266.532 168.082 266.212 168.665 265.602L216.476 215.533C217.413 214.552 217.393 213.149 216.428 212.188L203.501 199.314L192.688 188.545C192.106 187.966 191.345 187.665 190.461 187.665Z" fill="#C9E7F5"/>
<path fill-rule="evenodd" clip-rule="evenodd" d="M142.254 190.306H190.461L214.201 213.949L166.39 264.018L118.731 213.961L142.254 190.306Z" fill="#F8FCFE"/>
<path fill-rule="evenodd" clip-rule="evenodd" d="M142.273 190.179L190.461 190.306L214.201 213.949L118.731 213.961L142.273 190.179Z" fill="#E9F5FB"/>
<path fill-rule="evenodd" clip-rule="evenodd" d="M142.272 213.958L166.486 190.306L190.462 213.952L166.39 264.018L142.272 213.958Z" fill="#C9E7F5" fill-opacity="0.5"/>
<defs>
<linearGradient id="paint0_linear_160_4" x1="304.453" y1="323.887" x2="-30" y2="40.1941" gradientUnits="userSpaceOnUse">
<stop stop-color="#03805E"/>
<stop offset="1" stop-color="#30A057"/>
</linearGradient>
<linearGradient id="paint1_linear_160_4" x1="180.333" y1="1.20744" x2="164.173" y2="420.087" gradientUnits="userSpaceOnUse">
<stop stop-color="#03805E"/>
<stop offset="1" stop-color="#35A25E"/>
</linearGradient>
<linearGradient id="paint2_linear_160_4" x1="250.64" y1="302.581" x2="284.2" y2="120.354" gradientUnits="userSpaceOnUse">
<stop stop-color="#FEC52E"/>
<stop offset="0.201278" stop-color="#FEC52E"/>
<stop offset="1" stop-color="#F79651"/>
</linearGradient>
<linearGradient id="paint3_linear_160_4" x1="82.3866" y1="302.581" x2="48.8266" y2="120.354" gradientUnits="userSpaceOnUse">
<stop stop-color="#FEC52E"/>
<stop offset="0.201278" stop-color="#FEC52E"/>
<stop offset="1" stop-color="#F79651"/>
</linearGradient>
<linearGradient id="paint4_linear_160_4" x1="231.907" y1="292.687" x2="260.427" y2="417.461" gradientUnits="userSpaceOnUse">
<stop stop-color="#FECB3B"/>
<stop offset="1" stop-color="#F49650"/>
</linearGradient>
<linearGradient id="paint5_linear_160_4" x1="101.16" y1="292.687" x2="72.64" y2="417.461" gradientUnits="userSpaceOnUse">
<stop stop-color="#FECB3B"/>
<stop offset="1" stop-color="#F49650"/>
</linearGradient>
<linearGradient id="paint6_linear_160_4" x1="167" y1="133.767" x2="166.867" y2="178.914" gradientUnits="userSpaceOnUse">
<stop stop-color="#5D4229"/>
<stop offset="1" stop-color="#7A5230"/>
</linearGradient>
<linearGradient id="paint7_linear_160_4" x1="209.627" y1="185.754" x2="179.36" y2="185.754" gradientUnits="userSpaceOnUse">
<stop stop-color="#5D4229"/>
<stop offset="1" stop-color="#7A5230"/>
</linearGradient>
<linearGradient id="paint8_linear_160_4" x1="124.747" y1="185.754" x2="155.027" y2="185.754" gradientUnits="userSpaceOnUse">
<stop stop-color="#5D4229"/>
<stop offset="1" stop-color="#7A5230"/>
</linearGradient>
</defs>
</svg>
